<svg width="177" height="30" viewBox="0 0 177 30" fill="none" xmlns="http://www.w3.org/2000/svg">
<g id="Group 330">
<g id="layer1">
<path id="path2383" fill-rule="evenodd" clip-rule="evenodd" d="M21.0939 1.63605C21.7361 1.65383 21.6679 2.10514 21.5617 2.26073C19.6663 5.20918 15.1879 10.4008 11.9271 16.0969C11.3872 17.0198 10.9852 17.6988 10.9852 18.7116C10.9852 20.0847 11.8424 21.7082 13.5645 22.4049C14.6973 22.8587 15.4105 22.8726 16.6331 22.8903C25.7101 23.171 29.349 22.9257 37.4715 22.6501C37.9405 22.6488 38.3767 22.3328 38.5335 22.1418C40.1039 20.5045 41.0091 17.561 41.0091 14.9639C41.0091 9.1794 36.843 3.96889 30.3441 1.46291L29.301 2.80059C34.9971 5.15485 37.9405 9.85707 37.9405 14.8931C37.9405 16.0261 37.7483 17.1235 37.4006 18.1716C37.1427 18.9025 36.8254 19.3222 35.9023 19.3362C29.2832 19.4777 25.5356 19.5814 18.8989 19.4069C18.0429 19.3893 17.766 19.077 17.6269 18.3992C17.5207 17.9972 17.6092 17.6633 17.8862 17.1589C21.4062 10.923 27.5384 3.79563 28.7422 2.10514C28.971 1.79286 28.8635 1.16321 28.0783 0.954623C25.7809 0.27562 23.2029 0 20.5894 0C8.75603 0.0480345 0.409791 6.70367 0.217651 14.9639C0.691816 24.8793 9.31357 30 20.5894 30C27.4892 30 33.8098 27.5609 37.5081 23.6932L34.0917 23.831C30.9371 26.6367 25.8834 28.1362 20.6564 28.1362C11.1293 28.1362 3.37227 23.3986 3.37227 14.8931C3.37227 7.57746 11.128 1.61839 20.6564 1.61839L21.0939 1.63605ZM99.3617 19.5448L105.806 15.3129L96.0515 8.04655V9.82549H81.6224C79.7398 9.82549 78.1908 11.1645 77.9101 12.908L94.638 12.8903V16.0614L81.8487 16.0791C79.8282 16.0791 78.1732 17.6141 78.0846 19.5448H99.3617ZM160.639 9.77238H175.431V6.65442H160.555C154.992 6.65442 150.447 10.9052 150.219 16.2359L168.15 16.217C169.315 16.217 170.256 16.9844 170.256 17.9087C170.256 18.8494 169.314 19.5992 168.15 19.5992L148.408 19.5979V6.65442H142.553V19.5132H130.794C129.068 19.2325 128.527 17.9795 128.527 15.5392L128.528 6.65442H119.086L110.597 12.1582L103.21 6.65442H80.4896C75.4535 6.65442 71.2557 10.1201 70.3315 14.7363H74.8959C73.1738 15.9046 71.8487 17.561 71.1166 19.5145L56.6698 19.5132C54.9667 19.2325 54.4079 17.9795 54.4079 15.5392L54.4091 6.65442H48.5701V14.9462C48.3249 20.4374 51.3037 22.4049 54.7024 22.7172L100.093 22.7158L108.456 17.3144L115.758 22.7879H124.692L113.318 14.2331L122.672 8.17044L122.69 14.9462C122.449 20.4374 125.722 22.4049 129.121 22.7172L171.598 22.7158C174.525 22.7158 176.897 20.5752 176.897 17.9087C176.897 15.2585 174.524 13.1179 171.598 13.1179H156.928C157.066 11.253 158.671 9.77238 160.639 9.77238Z" fill="#111111"/>
</g>
</g>
</svg>
