<svg width="13" height="13" viewBox="0 0 13 13" fill="none" xmlns="http://www.w3.org/2000/svg">
<path id="Vector" d="M0.665647 10.3466L0.16712 10.3083L0.665647 10.3466ZM12.3344 10.3466L12.8329 10.3083L12.3344 10.3466ZM11.9754 5.67994L11.4769 5.71829L11.9754 5.67994ZM1.02462 5.67994L1.52315 5.71829L1.02462 5.67994ZM4.50667 6.33333C4.78281 6.33333 5.00667 6.10948 5.00667 5.83333C5.00667 5.55719 4.78281 5.33333 4.50667 5.33333V6.33333ZM4.5 5.33333C4.22386 5.33333 4 5.55719 4 5.83333C4 6.10948 4.22386 6.33333 4.5 6.33333V5.33333ZM8.50667 6.33333C8.78281 6.33333 9.00667 6.10948 9.00667 5.83333C9.00667 5.55719 8.78281 5.33333 8.50667 5.33333V6.33333ZM8.5 5.33333C8.22386 5.33333 8 5.55719 8 5.83333C8 6.10948 8.22386 6.33333 8.5 6.33333V5.33333ZM3.01873 4.33333H9.98127V3.33333H3.01873V4.33333ZM11.4769 5.71829L11.8358 10.385L12.8329 10.3083L12.4739 5.64159L11.4769 5.71829ZM10.3402 12H2.65976V13H10.3402V12ZM1.16417 10.385L1.52315 5.71829L0.526094 5.64159L0.16712 10.3083L1.16417 10.385ZM2.65976 12C1.78599 12 1.09716 11.2561 1.16417 10.385L0.16712 10.3083C0.0554287 11.7602 1.20348 13 2.65976 13V12ZM11.8358 10.385C11.9028 11.2561 11.214 12 10.3402 12V13C11.7965 13 12.9446 11.7602 12.8329 10.3083L11.8358 10.385ZM9.98127 4.33333C10.7651 4.33333 11.4167 4.93679 11.4769 5.71829L12.4739 5.64159C12.3737 4.3391 11.2876 3.33333 9.98127 3.33333V4.33333ZM3.01873 3.33333C1.71239 3.33333 0.626286 4.3391 0.526094 5.64159L1.52315 5.71829C1.58326 4.93679 2.23493 4.33333 3.01873 4.33333V3.33333ZM8 2.5V3.83333H9V2.5H8ZM5 3.83333V2.5H4V3.83333H5ZM6.5 1C7.32843 1 8 1.67157 8 2.5H9C9 1.11929 7.88071 0 6.5 0V1ZM6.5 0C5.11929 0 4 1.11929 4 2.5H5C5 1.67157 5.67157 1 6.5 1V0ZM4.50667 5.33333H4.5V6.33333H4.50667V5.33333ZM8.50667 5.33333H8.5V6.33333H8.50667V5.33333Z" fill="#158ECE"/>
</svg>
