<svg width="122" height="37" viewBox="0 0 122 37" fill="none" xmlns="http://www.w3.org/2000/svg">
<rect x="0.633545" y="1" width="120.5" height="35" rx="4.5" stroke="white"/>
<path d="M61.4559 20.0759C59.3391 20.0759 57.6138 21.686 57.6138 23.9036C57.6138 26.1077 59.3391 27.7313 61.4559 27.7313C63.5736 27.7313 65.2989 26.1077 65.2989 23.9036C65.298 21.686 63.5727 20.0759 61.4559 20.0759ZM61.4559 26.2247C60.2958 26.2247 59.2959 25.268 59.2959 23.9045C59.2959 22.5266 60.2967 21.5843 61.4559 21.5843C62.616 21.5843 63.6159 22.5266 63.6159 23.9045C63.6159 25.2671 62.616 26.2247 61.4559 26.2247ZM53.0733 20.0759C50.9565 20.0759 49.2312 21.686 49.2312 23.9036C49.2312 26.1077 50.9565 27.7313 53.0733 27.7313C55.191 27.7313 56.9163 26.1077 56.9163 23.9036C56.9163 21.686 55.191 20.0759 53.0733 20.0759ZM53.0733 26.2247C51.9132 26.2247 50.9133 25.268 50.9133 23.9045C50.9133 22.5266 51.9141 21.5843 53.0733 21.5843C54.2334 21.5843 55.2333 22.5266 55.2333 23.9045C55.2342 25.2671 54.2334 26.2247 53.0733 26.2247ZM43.1031 21.2513V22.8749H46.9893C46.8732 23.7884 46.569 24.4553 46.1046 24.9188C45.5394 25.484 44.6547 26.1077 43.1031 26.1077C40.7109 26.1077 38.8407 24.179 38.8407 21.7868C38.8407 19.3946 40.7109 17.4659 43.1031 17.4659C44.3937 17.4659 45.336 17.9735 46.0317 18.626L47.1774 17.4803C46.2054 16.5524 44.9157 15.8423 43.1031 15.8423C39.8262 15.8423 37.0713 18.5099 37.0713 21.7868C37.0713 25.0637 39.8262 27.7313 43.1031 27.7313C44.8716 27.7313 46.2063 27.1508 47.2494 26.0636C48.3222 24.9908 48.6561 23.4824 48.6561 22.2647C48.6561 21.8885 48.6273 21.5402 48.5688 21.2504H43.1031V21.2513ZM83.8803 22.5122C83.5617 21.6572 82.5897 20.0759 80.6034 20.0759C78.6315 20.0759 76.9926 21.6275 76.9926 23.9036C76.9926 26.0492 78.6171 27.7313 80.7915 27.7313C82.5456 27.7313 83.5608 26.6585 83.982 26.0348L82.677 25.1645C82.2423 25.8026 81.6474 26.2229 80.7915 26.2229C79.9365 26.2229 79.3272 25.8314 78.9357 25.0628L84.054 22.946L83.8803 22.5122ZM78.6603 23.7884C78.6171 22.3088 79.806 21.5555 80.6619 21.5555C81.3288 21.5555 81.894 21.8894 82.083 22.3673L78.6603 23.7884ZM74.4996 27.5H76.1808V16.2491H74.4996V27.5ZM71.7438 20.9318H71.6862C71.3091 20.4818 70.5837 20.0759 69.6711 20.0759C67.7568 20.0759 66.0027 21.758 66.0027 23.9189C66.0027 26.0645 67.7568 27.7322 69.6711 27.7322C70.5846 27.7322 71.3091 27.3263 71.6862 26.8628H71.7438V27.4136C71.7438 28.8779 70.9608 29.6609 69.6999 29.6609C68.6703 29.6609 68.0322 28.922 67.7712 28.2983L66.3069 28.9076C66.7272 29.9219 67.8432 31.1693 69.6999 31.1693C71.6718 31.1693 73.3395 30.0092 73.3395 27.1814V20.309H71.7447V20.9318H71.7438ZM69.816 26.2247C68.6559 26.2247 67.6848 25.2527 67.6848 23.9189C67.6848 22.5698 68.6559 21.5843 69.816 21.5843C70.9608 21.5843 71.8599 22.5698 71.8599 23.9189C71.8599 25.2527 70.9608 26.2247 69.816 26.2247ZM91.7589 16.2491H87.735V27.5H89.4135V23.2376H91.758C93.6192 23.2376 95.4498 21.8903 95.4498 19.7438C95.4498 17.5973 93.6201 16.2491 91.7589 16.2491ZM91.8021 21.6716H89.4135V17.8151H91.8021C93.0576 17.8151 93.7704 18.8546 93.7704 19.7438C93.7704 20.615 93.0576 21.6716 91.8021 21.6716ZM102.181 20.0561C100.965 20.0561 99.7059 20.5916 99.1848 21.7787L100.675 22.4006C100.994 21.7787 101.588 21.5753 102.21 21.5753C103.078 21.5753 103.961 22.0964 103.975 23.0225V23.1386C103.671 22.9649 103.02 22.7048 102.224 22.7048C100.618 22.7048 98.9814 23.5877 98.9814 25.2374C98.9814 26.7431 100.299 27.7124 101.775 27.7124C102.904 27.7124 103.526 27.2057 103.917 26.6117H103.975V27.4802H105.596V23.1665C105.597 21.1703 104.105 20.0561 102.181 20.0561ZM101.977 26.222C101.428 26.222 100.661 25.9466 100.661 25.2662C100.661 24.3977 101.617 24.0647 102.442 24.0647C103.179 24.0647 103.527 24.224 103.975 24.4409C103.845 25.484 102.948 26.222 101.977 26.222ZM111.502 20.3018L109.577 25.1798H109.519L107.521 20.3018H105.712L108.709 27.1193L107 30.9119H108.752L113.37 20.3018H111.502ZM96.3768 27.5H98.0553V16.2491H96.3768V27.5Z" fill="white"/>
<path d="M42.8097 9.71887C42.8097 10.4731 42.5865 11.0734 42.1392 11.5216C41.6316 12.0544 40.9692 12.3208 40.1556 12.3208C39.3762 12.3208 38.7129 12.0508 38.1684 11.5108C37.623 10.9699 37.3503 10.3003 37.3503 9.50107C37.3503 8.70097 37.623 8.03137 38.1684 7.49137C38.7129 6.95047 39.3762 6.68047 40.1556 6.68047C40.5426 6.68047 40.9125 6.75607 41.2635 6.90637C41.6154 7.05757 41.8971 7.25827 42.1077 7.50937L41.6334 7.98457C41.2761 7.55707 40.7838 7.34377 40.1547 7.34377C39.5859 7.34377 39.0945 7.54357 38.6796 7.94317C38.2647 8.34277 38.0577 8.86207 38.0577 9.50017C38.0577 10.1383 38.2647 10.6576 38.6796 11.0572C39.0945 11.4568 39.5859 11.6566 40.1547 11.6566C40.7577 11.6566 41.2608 11.4559 41.6631 11.0536C41.9241 10.7917 42.0753 10.4272 42.1158 9.96007H40.1547V9.31117H42.771C42.798 9.45247 42.8097 9.58837 42.8097 9.71887Z" fill="white"/>
<path d="M46.9588 7.46352H44.5V9.17532H46.7176V9.82422H44.5V11.536H46.9588V12.2002H43.8061V6.80022H46.9588V7.46352Z" fill="white"/>
<path d="M49.8846 12.2002H49.1907V7.46352H47.6823V6.80022H51.393V7.46352H49.8846V12.2002Z" fill="white"/>
<path d="M54.0777 12.2002V6.80022H54.7716V12.2002H54.0777Z" fill="white"/>
<path d="M57.8488 12.2002H57.1549V7.46352H55.6465V6.80022H59.3572V7.46352H57.8488V12.2002Z" fill="white"/>
<path d="M66.3815 11.5027C65.8505 12.0481 65.1908 12.3208 64.4015 12.3208C63.6122 12.3208 62.9525 12.0481 62.4224 11.5027C61.8914 10.9573 61.6268 10.2895 61.6268 9.50021C61.6268 8.71091 61.8914 8.04311 62.4224 7.49771C62.9525 6.95231 63.6122 6.67871 64.4015 6.67871C65.1863 6.67871 65.8451 6.95321 66.3779 7.50131C66.9107 8.04941 67.1771 8.71541 67.1771 9.50021C67.1771 10.2895 66.9116 10.9573 66.3815 11.5027ZM62.9345 11.05C63.3341 11.455 63.8228 11.6566 64.4015 11.6566C64.9802 11.6566 65.4698 11.4541 65.8685 11.05C66.2681 10.645 66.4688 10.1284 66.4688 9.50021C66.4688 8.87201 66.2681 8.35541 65.8685 7.95041C65.4698 7.54541 64.9802 7.34381 64.4015 7.34381C63.8228 7.34381 63.3341 7.54631 62.9345 7.95041C62.5358 8.35541 62.3351 8.87201 62.3351 9.50021C62.3351 10.1284 62.5358 10.645 62.9345 11.05Z" fill="white"/>
<path d="M68.1509 12.2002V6.80022H68.9952L71.6196 11.0005H71.6493L71.6196 9.96012V6.80022H72.3134V12.2002H71.589L68.8431 7.79562H68.8134L68.8431 8.83602V12.2002H68.1509Z" fill="white"/>
<path d="M42.8097 9.71887C42.8097 10.4731 42.5865 11.0734 42.1392 11.5216C41.6316 12.0544 40.9692 12.3208 40.1556 12.3208C39.3762 12.3208 38.7129 12.0508 38.1684 11.5108C37.623 10.9699 37.3503 10.3003 37.3503 9.50107C37.3503 8.70097 37.623 8.03137 38.1684 7.49137C38.7129 6.95047 39.3762 6.68047 40.1556 6.68047C40.5426 6.68047 40.9125 6.75607 41.2635 6.90637C41.6154 7.05757 41.8971 7.25827 42.1077 7.50937L41.6334 7.98457C41.2761 7.55707 40.7838 7.34377 40.1547 7.34377C39.5859 7.34377 39.0945 7.54357 38.6796 7.94317C38.2647 8.34277 38.0577 8.86207 38.0577 9.50017C38.0577 10.1383 38.2647 10.6576 38.6796 11.0572C39.0945 11.4568 39.5859 11.6566 40.1547 11.6566C40.7577 11.6566 41.2608 11.4559 41.6631 11.0536C41.9241 10.7917 42.0753 10.4272 42.1158 9.96007H40.1547V9.31117H42.771C42.798 9.45247 42.8097 9.58837 42.8097 9.71887Z" stroke="white" stroke-width="0.2" stroke-miterlimit="10"/>
<path d="M46.9588 7.46352H44.5V9.17532H46.7176V9.82422H44.5V11.536H46.9588V12.2002H43.8061V6.80022H46.9588V7.46352Z" stroke="white" stroke-width="0.2" stroke-miterlimit="10"/>
<path d="M49.8846 12.2002H49.1907V7.46352H47.6823V6.80022H51.393V7.46352H49.8846V12.2002Z" stroke="white" stroke-width="0.2" stroke-miterlimit="10"/>
<path d="M54.0777 12.2002V6.80022H54.7716V12.2002H54.0777Z" stroke="white" stroke-width="0.2" stroke-miterlimit="10"/>
<path d="M57.8488 12.2002H57.1549V7.46352H55.6465V6.80022H59.3572V7.46352H57.8488V12.2002Z" stroke="white" stroke-width="0.2" stroke-miterlimit="10"/>
<path d="M66.3815 11.5027C65.8505 12.0481 65.1908 12.3208 64.4015 12.3208C63.6122 12.3208 62.9525 12.0481 62.4224 11.5027C61.8914 10.9573 61.6268 10.2895 61.6268 9.50021C61.6268 8.71091 61.8914 8.04311 62.4224 7.49771C62.9525 6.95231 63.6122 6.67871 64.4015 6.67871C65.1863 6.67871 65.8451 6.95321 66.3779 7.50131C66.9107 8.04941 67.1771 8.71541 67.1771 9.50021C67.1771 10.2895 66.9116 10.9573 66.3815 11.5027ZM62.9345 11.05C63.3341 11.455 63.8228 11.6566 64.4015 11.6566C64.9802 11.6566 65.4698 11.4541 65.8685 11.05C66.2681 10.645 66.4688 10.1284 66.4688 9.50021C66.4688 8.87201 66.2681 8.35541 65.8685 7.95041C65.4698 7.54541 64.9802 7.34381 64.4015 7.34381C63.8228 7.34381 63.3341 7.54631 62.9345 7.95041C62.5358 8.35541 62.3351 8.87201 62.3351 9.50021C62.3351 10.1284 62.5358 10.645 62.9345 11.05Z" stroke="white" stroke-width="0.2" stroke-miterlimit="10"/>
<path d="M68.1509 12.2002V6.80022H68.9952L71.6196 11.0005H71.6493L71.6196 9.96012V6.80022H72.3134V12.2002H71.589L68.8431 7.79562H68.8134L68.8431 8.83602V12.2002H68.1509Z" stroke="white" stroke-width="0.2" stroke-miterlimit="10"/>
<path fill-rule="evenodd" clip-rule="evenodd" d="M23.358 13.2833L13.0334 7.29568C12.6418 7.06114 12.1848 6.92578 11.6957 6.92578C10.7051 6.92578 9.83185 7.5149 9.39757 8.34495L9.48696 8.43432L18.8476 17.7929L23.358 13.2833ZM9.10688 9.46838C9.10659 9.48379 9.10645 9.49923 9.10645 9.51469V27.4855C9.10645 27.501 9.10659 27.5164 9.10688 27.5317L18.1404 18.5L9.10688 9.46838ZM9.3976 28.6552C9.83195 29.4852 10.7054 30.0744 11.6957 30.0744C12.1742 30.0744 12.6235 29.945 13.0088 29.7179L13.0394 29.7L23.3758 23.7342L18.8476 19.207L9.48696 28.5658L9.3976 28.6552ZM24.2725 23.2167L28.455 20.8027C29.2671 20.3643 29.8184 19.5082 29.8184 18.521C29.8184 17.5409 29.2745 16.689 28.4705 16.2492L28.4613 16.2429L24.2532 13.8024L19.5548 18.5L24.2725 23.2167Z" fill="white"/>
</svg>
