<svg width="109" height="36" viewBox="0 0 109 36" fill="none" xmlns="http://www.w3.org/2000/svg">
<rect x="1.25" y="0.5" width="107" height="35" rx="6.5" stroke="white"/>
<path d="M74.1233 17.2808V19.3427H72.8308V20.6949H74.1233V25.2894C74.1233 26.8583 74.833 27.4858 76.6185 27.4858C76.9322 27.4858 77.2311 27.4484 77.4925 27.4036V26.0664C77.2684 26.0888 77.1265 26.1037 76.88 26.1037C76.0806 26.1037 75.7295 25.7302 75.7295 24.8785V20.6949H77.4925V19.3427H75.7295V17.2808H74.1233Z" fill="white"/>
<path d="M82.041 27.5979C84.4167 27.5979 85.8735 26.0066 85.8735 23.3694C85.8735 20.7472 84.4092 19.1485 82.041 19.1485C79.6653 19.1485 78.2011 20.7472 78.2011 23.3694C78.2011 26.0066 79.6579 27.5979 82.041 27.5979ZM82.041 26.171C80.644 26.171 79.8596 25.1475 79.8596 23.3694C79.8596 21.6064 80.644 20.5754 82.041 20.5754C83.4306 20.5754 84.2225 21.6064 84.2225 23.3694C84.2225 25.14 83.4306 26.171 82.041 26.171Z" fill="white"/>
<path d="M87.1199 27.441H88.7261V22.6373C88.7261 21.4943 89.5852 20.7248 90.803 20.7248C91.0868 20.7248 91.565 20.7771 91.6994 20.8219V19.2381C91.5276 19.1933 91.2213 19.1709 90.9823 19.1709C89.9214 19.1709 89.0175 19.7536 88.7859 20.553H88.6663V19.3054H87.1199V27.441Z" fill="white"/>
<path d="M95.6876 20.5156C96.8754 20.5156 97.6524 21.3449 97.6897 22.6224H93.5809C93.6705 21.3524 94.4998 20.5156 95.6876 20.5156ZM97.6823 25.2446C97.3834 25.8796 96.7186 26.2307 95.7474 26.2307C94.4624 26.2307 93.6332 25.3268 93.5809 23.8999V23.8102H99.3258V23.2499C99.3258 20.6949 97.9587 19.1485 95.6951 19.1485C93.4016 19.1485 91.9448 20.7995 91.9448 23.3993C91.9448 25.9991 93.3717 27.5979 95.7025 27.5979C97.5627 27.5979 98.8626 26.7014 99.2287 25.2446H97.6823Z" fill="white"/>
<path d="M63.59 24.4366C63.7139 26.4344 65.3787 27.712 67.8565 27.712C70.5047 27.712 72.1617 26.3724 72.1617 24.2353C72.1617 22.555 71.2171 21.6259 68.9251 21.0916L67.6939 20.7896C66.2382 20.4489 65.6497 19.9921 65.6497 19.1945C65.6497 18.1879 66.5634 17.5297 67.934 17.5297C69.2348 17.5297 70.133 18.1724 70.2956 19.2023H71.9836C71.883 17.3207 70.2259 15.9966 67.9572 15.9966C65.5181 15.9966 63.892 17.3207 63.892 19.3107C63.892 20.9522 64.8135 21.9278 66.8344 22.4002L68.2747 22.7486C69.7536 23.0971 70.404 23.6081 70.404 24.4599C70.404 25.451 69.3819 26.1711 67.9882 26.1711C66.4937 26.1711 65.4561 25.4974 65.309 24.4366H63.59Z" fill="white"/>
<path d="M46.9514 19.1709C45.8458 19.1709 44.8895 19.7237 44.3965 20.6501H44.2769V19.3054H42.7305V30.1454H44.3367V26.2083H44.4637C44.8895 27.0674 45.8084 27.5755 46.9664 27.5755C49.0208 27.5755 50.3282 25.9543 50.3282 23.3694C50.3282 20.7846 49.0208 19.1709 46.9514 19.1709ZM46.4957 26.1336C45.151 26.1336 44.3068 25.0728 44.3068 23.3769C44.3068 21.6736 45.151 20.6128 46.5032 20.6128C47.8629 20.6128 48.6772 21.6512 48.6772 23.3694C48.6772 25.0952 47.8629 26.1336 46.4957 26.1336Z" fill="white"/>
<path d="M55.9486 19.1709C54.8429 19.1709 53.8866 19.7237 53.3936 20.6501H53.274V19.3054H51.7276V30.1454H53.3338V26.2083H53.4608C53.8866 27.0674 54.8055 27.5755 55.9635 27.5755C58.0179 27.5755 59.3253 25.9543 59.3253 23.3694C59.3253 20.7846 58.0179 19.1709 55.9486 19.1709ZM55.4928 26.1336C54.1481 26.1336 53.3039 25.0728 53.3039 23.3769C53.3039 21.6736 54.1481 20.6128 55.5003 20.6128C56.86 20.6128 57.6743 21.6512 57.6743 23.3694C57.6743 25.0952 56.86 26.1336 55.4928 26.1336Z" fill="white"/>
<path d="M39.8487 27.441H41.6916L37.6574 16.2676H35.7913L31.7571 27.441H33.538L34.5678 24.4753H38.8266L39.8487 27.441ZM36.6353 18.2963H36.7669L38.3852 23.0196H35.0092L36.6353 18.2963Z" fill="white"/>
<path d="M32.8359 7.83992V13.23H34.7821C36.3883 13.23 37.3184 12.2402 37.3184 10.5182C37.3184 8.82231 36.3808 7.83992 34.7821 7.83992H32.8359ZM33.6727 8.60193H34.6887C35.8055 8.60193 36.4667 9.31165 36.4667 10.5294C36.4667 11.7658 35.8167 12.468 34.6887 12.468H33.6727V8.60193Z" fill="white"/>
<path d="M40.1669 13.3085C41.3548 13.3085 42.0832 12.5128 42.0832 11.1943C42.0832 9.88315 41.351 9.08379 40.1669 9.08379C38.9791 9.08379 38.247 9.88315 38.247 11.1943C38.247 12.5128 38.9754 13.3085 40.1669 13.3085ZM40.1669 12.595C39.4684 12.595 39.0762 12.0833 39.0762 11.1943C39.0762 10.3127 39.4684 9.79724 40.1669 9.79724C40.8617 9.79724 41.2577 10.3127 41.2577 11.1943C41.2577 12.0795 40.8617 12.595 40.1669 12.595Z" fill="white"/>
<path d="M48.2861 9.16223H47.483L46.7583 12.2663H46.6948L45.8581 9.16223H45.0886L44.2519 12.2663H44.1922L43.4638 9.16223H42.6495L43.7701 13.23H44.5956L45.4323 10.2343H45.4958L46.3362 13.23H47.1692L48.2861 9.16223Z" fill="white"/>
<path d="M49.211 13.23H50.0141V10.8506C50.0141 10.2156 50.3913 9.81965 50.9853 9.81965C51.5792 9.81965 51.8631 10.1446 51.8631 10.7983V13.23H52.6662V10.5966C52.6662 9.62915 52.1656 9.08379 51.2579 9.08379C50.6453 9.08379 50.2419 9.35647 50.044 9.80845H49.9842V9.16223H49.211V13.23Z" fill="white"/>
<path d="M53.931 13.23H54.7341V7.57471H53.931V13.23Z" fill="white"/>
<path d="M57.7545 13.3085C58.9423 13.3085 59.6707 12.5128 59.6707 11.1943C59.6707 9.88315 58.9386 9.08379 57.7545 9.08379C56.5666 9.08379 55.8345 9.88315 55.8345 11.1943C55.8345 12.5128 56.5629 13.3085 57.7545 13.3085ZM57.7545 12.595C57.056 12.595 56.6637 12.0833 56.6637 11.1943C56.6637 10.3127 57.056 9.79724 57.7545 9.79724C58.4492 9.79724 58.8452 10.3127 58.8452 11.1943C58.8452 12.0795 58.4492 12.595 57.7545 12.595Z" fill="white"/>
<path d="M62.0636 12.6212C61.6265 12.6212 61.309 12.4083 61.309 12.0422C61.309 11.6836 61.563 11.4931 62.1233 11.4557L63.1169 11.3922V11.7322C63.1169 12.2364 62.6687 12.6212 62.0636 12.6212ZM61.8581 13.2973C62.3923 13.2973 62.8368 13.0657 63.0796 12.6585H63.1431V13.23H63.9163V10.4509C63.9163 9.5918 63.3411 9.08379 62.3213 9.08379C61.3987 9.08379 60.7413 9.53203 60.6591 10.2305H61.436C61.5257 9.94292 61.8357 9.77856 62.284 9.77856C62.833 9.77856 63.1169 10.0214 63.1169 10.4509V10.8021L62.015 10.8656C61.0476 10.9253 60.5022 11.3474 60.5022 12.0795C60.5022 12.8229 61.0737 13.2973 61.8581 13.2973Z" fill="white"/>
<path d="M66.6416 13.2973C67.2019 13.2973 67.6763 13.0321 67.9191 12.5875H67.9826V13.23H68.7521V7.57471H67.949V9.80845H67.8892C67.6688 9.36021 67.1982 9.095 66.6416 9.095C65.6144 9.095 64.9532 9.9093 64.9532 11.1943C64.9532 12.483 65.6069 13.2973 66.6416 13.2973ZM66.8695 9.81592C67.5418 9.81592 67.9639 10.3501 67.9639 11.198C67.9639 12.0497 67.5456 12.5763 66.8695 12.5763C66.1896 12.5763 65.7825 12.0571 65.7825 11.1943C65.7825 10.3389 66.1934 9.81592 66.8695 9.81592Z" fill="white"/>
<path d="M73.9599 13.3085C75.1478 13.3085 75.8762 12.5128 75.8762 11.1943C75.8762 9.88315 75.144 9.08379 73.9599 9.08379C72.7721 9.08379 72.0399 9.88315 72.0399 11.1943C72.0399 12.5128 72.7683 13.3085 73.9599 13.3085ZM73.9599 12.595C73.2614 12.595 72.8692 12.0833 72.8692 11.1943C72.8692 10.3127 73.2614 9.79724 73.9599 9.79724C74.6547 9.79724 75.0506 10.3127 75.0506 11.1943C75.0506 12.0795 74.6547 12.595 73.9599 12.595Z" fill="white"/>
<path d="M76.9392 13.23H77.7423V10.8506C77.7423 10.2156 78.1196 9.81965 78.7135 9.81965C79.3074 9.81965 79.5913 10.1446 79.5913 10.7983V13.23H80.3944V10.5966C80.3944 9.62915 79.8939 9.08379 78.9862 9.08379C78.3736 9.08379 77.9702 9.35647 77.7722 9.80845H77.7124V9.16223H76.9392V13.23Z" fill="white"/>
<path d="M84.0932 8.14995V9.18091H83.447V9.85701H84.0932V12.1542C84.0932 12.9387 84.448 13.2524 85.3408 13.2524C85.4977 13.2524 85.6471 13.2338 85.7778 13.2114V12.5427C85.6658 12.5539 85.5948 12.5614 85.4715 12.5614C85.0718 12.5614 84.8963 12.3746 84.8963 11.9488V9.85701H85.7778V9.18091H84.8963V8.14995H84.0932Z" fill="white"/>
<path d="M86.8558 13.23H87.6589V10.8543C87.6589 10.238 88.025 9.82339 88.6824 9.82339C89.2502 9.82339 89.5528 10.1521 89.5528 10.8021V13.23H90.3559V10.6041C90.3559 9.63662 89.8217 9.08752 88.9551 9.08752C88.3425 9.08752 87.9129 9.36021 87.715 9.81592H87.6515V7.57471H86.8558V13.23Z" fill="white"/>
<path d="M93.253 9.76736C93.8469 9.76736 94.2354 10.182 94.2541 10.8207H92.1996C92.2445 10.1857 92.6591 9.76736 93.253 9.76736ZM94.2503 12.1318C94.1009 12.4493 93.7685 12.6249 93.2829 12.6249C92.6404 12.6249 92.2258 12.1729 92.1996 11.4595V11.4146H95.0721V11.1345C95.0721 9.85701 94.3885 9.08379 93.2567 9.08379C92.11 9.08379 91.3816 9.9093 91.3816 11.2092C91.3816 12.5091 92.095 13.3085 93.2605 13.3085C94.1906 13.3085 94.8405 12.8602 95.0236 12.1318H94.2503Z" fill="white"/>
<path d="M23.0422 18.2707C23.0617 16.7578 23.8742 15.3263 25.1631 14.5339C24.35 13.3726 22.988 12.6363 21.571 12.5919C20.0597 12.4333 18.5946 13.4963 17.8244 13.4963C17.0394 13.4963 15.8536 12.6077 14.5768 12.634C12.9125 12.6877 11.3609 13.634 10.5512 15.089C8.81056 18.1026 10.1089 22.5316 11.7762 24.9675C12.6105 26.1603 13.5854 27.4927 14.8611 27.4455C16.1095 27.3937 16.5757 26.6495 18.0826 26.6495C19.5755 26.6495 20.0129 27.4455 21.3145 27.4155C22.654 27.3937 23.498 26.2173 24.3029 25.0132C24.9023 24.1633 25.3635 23.2239 25.6695 22.23C24.0953 21.5642 23.044 19.9799 23.0422 18.2707Z" fill="white"/>
<path d="M20.5837 10.9899C21.3141 10.1132 21.6739 8.9862 21.5868 7.84839C20.4709 7.96559 19.4402 8.49889 18.6999 9.34204C17.9761 10.1658 17.5994 11.273 17.6706 12.3673C18.7869 12.3788 19.8842 11.8599 20.5837 10.9899Z" fill="white"/>
</svg>
