<svg width="109" height="36" viewBox="0 0 109 36" fill="none" xmlns="http://www.w3.org/2000/svg">
<rect x="1" y="0.5" width="107" height="35" rx="6.5" stroke="#158ECE"/>
<path d="M73.8733 17.2808V19.3427H72.5808V20.6949H73.8733V25.2894C73.8733 26.8583 74.583 27.4858 76.3685 27.4858C76.6822 27.4858 76.9811 27.4484 77.2425 27.4036V26.0664C77.0184 26.0888 76.8765 26.1037 76.63 26.1037C75.8306 26.1037 75.4795 25.7302 75.4795 24.8785V20.6949H77.2425V19.3427H75.4795V17.2808H73.8733Z" fill="#158ECE"/>
<path d="M81.791 27.5979C84.1667 27.5979 85.6235 26.0066 85.6235 23.3694C85.6235 20.7472 84.1592 19.1485 81.791 19.1485C79.4153 19.1485 77.9511 20.7472 77.9511 23.3694C77.9511 26.0066 79.4079 27.5979 81.791 27.5979ZM81.791 26.171C80.394 26.171 79.6096 25.1475 79.6096 23.3694C79.6096 21.6064 80.394 20.5754 81.791 20.5754C83.1806 20.5754 83.9725 21.6064 83.9725 23.3694C83.9725 25.14 83.1806 26.171 81.791 26.171Z" fill="#158ECE"/>
<path d="M86.8699 27.441H88.4761V22.6373C88.4761 21.4943 89.3352 20.7248 90.553 20.7248C90.8368 20.7248 91.315 20.7771 91.4494 20.8219V19.2381C91.2776 19.1933 90.9713 19.1709 90.7323 19.1709C89.6714 19.1709 88.7675 19.7536 88.5359 20.553H88.4163V19.3054H86.8699V27.441Z" fill="#158ECE"/>
<path d="M95.4376 20.5156C96.6254 20.5156 97.4024 21.3449 97.4397 22.6224H93.3309C93.4205 21.3524 94.2498 20.5156 95.4376 20.5156ZM97.4323 25.2446C97.1334 25.8796 96.4686 26.2307 95.4974 26.2307C94.2124 26.2307 93.3832 25.3268 93.3309 23.8999V23.8102H99.0758V23.2499C99.0758 20.6949 97.7087 19.1485 95.4451 19.1485C93.1516 19.1485 91.6948 20.7995 91.6948 23.3993C91.6948 25.9991 93.1217 27.5979 95.4525 27.5979C97.3127 27.5979 98.6126 26.7014 98.9787 25.2446H97.4323Z" fill="#158ECE"/>
<path d="M63.34 24.4366C63.4639 26.4344 65.1287 27.712 67.6065 27.712C70.2547 27.712 71.9117 26.3724 71.9117 24.2353C71.9117 22.555 70.9671 21.6259 68.6751 21.0916L67.4439 20.7896C65.9882 20.4489 65.3997 19.9921 65.3997 19.1945C65.3997 18.1879 66.3134 17.5297 67.684 17.5297C68.9848 17.5297 69.883 18.1724 70.0456 19.2023H71.7336C71.633 17.3207 69.9759 15.9966 67.7072 15.9966C65.2681 15.9966 63.642 17.3207 63.642 19.3107C63.642 20.9522 64.5635 21.9278 66.5844 22.4002L68.0247 22.7486C69.5036 23.0971 70.154 23.6081 70.154 24.4599C70.154 25.451 69.1319 26.1711 67.7382 26.1711C66.2437 26.1711 65.2061 25.4974 65.059 24.4366H63.34Z" fill="#158ECE"/>
<path d="M46.7014 19.1709C45.5958 19.1709 44.6395 19.7237 44.1465 20.6501H44.0269V19.3054H42.4805V30.1454H44.0867V26.2083H44.2137C44.6395 27.0674 45.5584 27.5755 46.7164 27.5755C48.7708 27.5755 50.0782 25.9543 50.0782 23.3694C50.0782 20.7846 48.7708 19.1709 46.7014 19.1709ZM46.2457 26.1336C44.901 26.1336 44.0568 25.0728 44.0568 23.3769C44.0568 21.6736 44.901 20.6128 46.2532 20.6128C47.6129 20.6128 48.4272 21.6512 48.4272 23.3694C48.4272 25.0952 47.6129 26.1336 46.2457 26.1336Z" fill="#158ECE"/>
<path d="M55.6986 19.1709C54.5929 19.1709 53.6366 19.7237 53.1436 20.6501H53.024V19.3054H51.4776V30.1454H53.0838V26.2083H53.2108C53.6366 27.0674 54.5555 27.5755 55.7135 27.5755C57.7679 27.5755 59.0753 25.9543 59.0753 23.3694C59.0753 20.7846 57.7679 19.1709 55.6986 19.1709ZM55.2428 26.1336C53.8981 26.1336 53.0539 25.0728 53.0539 23.3769C53.0539 21.6736 53.8981 20.6128 55.2503 20.6128C56.61 20.6128 57.4243 21.6512 57.4243 23.3694C57.4243 25.0952 56.61 26.1336 55.2428 26.1336Z" fill="#158ECE"/>
<path d="M39.5987 27.441H41.4416L37.4074 16.2676H35.5413L31.5071 27.441H33.288L34.3178 24.4753H38.5766L39.5987 27.441ZM36.3853 18.2963H36.5169L38.1352 23.0196H34.7592L36.3853 18.2963Z" fill="#158ECE"/>
<path d="M32.5859 7.83986V13.23H34.5321C36.1383 13.23 37.0684 12.2401 37.0684 10.5181C37.0684 8.82225 36.1308 7.83986 34.5321 7.83986H32.5859ZM33.4227 8.60187H34.4387C35.5555 8.60187 36.2167 9.31158 36.2167 10.5293C36.2167 11.7657 35.5667 12.468 34.4387 12.468H33.4227V8.60187Z" fill="#158ECE"/>
<path d="M39.9169 13.3084C41.1048 13.3084 41.8332 12.5128 41.8332 11.1942C41.8332 9.88309 41.101 9.08373 39.9169 9.08373C38.7291 9.08373 37.997 9.88309 37.997 11.1942C37.997 12.5128 38.7254 13.3084 39.9169 13.3084ZM39.9169 12.595C39.2184 12.595 38.8262 12.0832 38.8262 11.1942C38.8262 10.3127 39.2184 9.79718 39.9169 9.79718C40.6117 9.79718 41.0077 10.3127 41.0077 11.1942C41.0077 12.0795 40.6117 12.595 39.9169 12.595Z" fill="#158ECE"/>
<path d="M48.0361 9.16217H47.233L46.5083 12.2662H46.4448L45.6081 9.16217H44.8386L44.0019 12.2662H43.9422L43.2138 9.16217H42.3995L43.5201 13.23H44.3456L45.1823 10.2342H45.2458L46.0862 13.23H46.9192L48.0361 9.16217Z" fill="#158ECE"/>
<path d="M48.961 13.23H49.7641V10.8505C49.7641 10.2155 50.1413 9.81959 50.7353 9.81959C51.3292 9.81959 51.6131 10.1446 51.6131 10.7983V13.23H52.4162V10.5965C52.4162 9.62909 51.9156 9.08373 51.0079 9.08373C50.3953 9.08373 49.9919 9.35641 49.794 9.80839H49.7342V9.16217H48.961V13.23Z" fill="#158ECE"/>
<path d="M53.681 13.23H54.4841V7.57465H53.681V13.23Z" fill="#158ECE"/>
<path d="M57.5045 13.3084C58.6923 13.3084 59.4207 12.5128 59.4207 11.1942C59.4207 9.88309 58.6886 9.08373 57.5045 9.08373C56.3166 9.08373 55.5845 9.88309 55.5845 11.1942C55.5845 12.5128 56.3129 13.3084 57.5045 13.3084ZM57.5045 12.595C56.806 12.595 56.4137 12.0832 56.4137 11.1942C56.4137 10.3127 56.806 9.79718 57.5045 9.79718C58.1992 9.79718 58.5952 10.3127 58.5952 11.1942C58.5952 12.0795 58.1992 12.595 57.5045 12.595Z" fill="#158ECE"/>
<path d="M61.8136 12.6211C61.3765 12.6211 61.059 12.4082 61.059 12.0421C61.059 11.6835 61.313 11.493 61.8733 11.4557L62.8669 11.3922V11.7321C62.8669 12.2364 62.4187 12.6211 61.8136 12.6211ZM61.6081 13.2972C62.1423 13.2972 62.5868 13.0656 62.8296 12.6585H62.8931V13.23H63.6663V10.4509C63.6663 9.59174 63.0911 9.08373 62.0713 9.08373C61.1487 9.08373 60.4913 9.53197 60.4091 10.2305H61.186C61.2757 9.94286 61.5857 9.7785 62.034 9.7785C62.583 9.7785 62.8669 10.0213 62.8669 10.4509V10.802L61.765 10.8655C60.7976 10.9253 60.2522 11.3474 60.2522 12.0795C60.2522 12.8228 60.8237 13.2972 61.6081 13.2972Z" fill="#158ECE"/>
<path d="M66.3916 13.2972C66.9519 13.2972 67.4263 13.032 67.6691 12.5875H67.7326V13.23H68.5021V7.57465H67.699V9.80839H67.6392C67.4188 9.36014 66.9482 9.09493 66.3916 9.09493C65.3644 9.09493 64.7032 9.90924 64.7032 11.1942C64.7032 12.4829 65.3569 13.2972 66.3916 13.2972ZM66.6195 9.81586C67.2918 9.81586 67.7139 10.35 67.7139 11.1979C67.7139 12.0496 67.2956 12.5763 66.6195 12.5763C65.9396 12.5763 65.5325 12.0571 65.5325 11.1942C65.5325 10.3388 65.9434 9.81586 66.6195 9.81586Z" fill="#158ECE"/>
<path d="M73.7099 13.3084C74.8978 13.3084 75.6262 12.5128 75.6262 11.1942C75.6262 9.88309 74.894 9.08373 73.7099 9.08373C72.5221 9.08373 71.7899 9.88309 71.7899 11.1942C71.7899 12.5128 72.5183 13.3084 73.7099 13.3084ZM73.7099 12.595C73.0114 12.595 72.6192 12.0832 72.6192 11.1942C72.6192 10.3127 73.0114 9.79718 73.7099 9.79718C74.4047 9.79718 74.8006 10.3127 74.8006 11.1942C74.8006 12.0795 74.4047 12.595 73.7099 12.595Z" fill="#158ECE"/>
<path d="M76.6892 13.23H77.4923V10.8505C77.4923 10.2155 77.8696 9.81959 78.4635 9.81959C79.0574 9.81959 79.3413 10.1446 79.3413 10.7983V13.23H80.1444V10.5965C80.1444 9.62909 79.6439 9.08373 78.7362 9.08373C78.1236 9.08373 77.7202 9.35641 77.5222 9.80839H77.4624V9.16217H76.6892V13.23Z" fill="#158ECE"/>
<path d="M83.8432 8.14989V9.18085H83.197V9.85695H83.8432V12.1542C83.8432 12.9386 84.198 13.2524 85.0908 13.2524C85.2477 13.2524 85.3971 13.2337 85.5278 13.2113V12.5427C85.4158 12.5539 85.3448 12.5613 85.2215 12.5613C84.8218 12.5613 84.6463 12.3746 84.6463 11.9487V9.85695H85.5278V9.18085H84.6463V8.14989H83.8432Z" fill="#158ECE"/>
<path d="M86.6058 13.23H87.4089V10.8543C87.4089 10.238 87.775 9.82333 88.4324 9.82333C89.0002 9.82333 89.3028 10.152 89.3028 10.802V13.23H90.1059V10.604C90.1059 9.63656 89.5717 9.08746 88.7051 9.08746C88.0925 9.08746 87.6629 9.36014 87.465 9.81586H87.4015V7.57465H86.6058V13.23Z" fill="#158ECE"/>
<path d="M93.003 9.7673C93.5969 9.7673 93.9854 10.1819 94.0041 10.8207H91.9496C91.9945 10.1857 92.4091 9.7673 93.003 9.7673ZM94.0003 12.1318C93.8509 12.4493 93.5185 12.6248 93.0329 12.6248C92.3904 12.6248 91.9758 12.1729 91.9496 11.4594V11.4146H94.8221V11.1344C94.8221 9.85695 94.1385 9.08373 93.0067 9.08373C91.86 9.08373 91.1316 9.90924 91.1316 11.2091C91.1316 12.509 91.845 13.3084 93.0105 13.3084C93.9406 13.3084 94.5905 12.8602 94.7736 12.1318H94.0003Z" fill="#158ECE"/>
<path d="M22.7922 18.2707C22.8117 16.7578 23.6242 15.3263 24.9131 14.5339C24.1 13.3726 22.738 12.6363 21.321 12.5919C19.8097 12.4333 18.3446 13.4963 17.5744 13.4963C16.7894 13.4963 15.6036 12.6077 14.3268 12.634C12.6625 12.6877 11.1109 13.634 10.3012 15.089C8.56056 18.1026 9.85889 22.5316 11.5262 24.9675C12.3605 26.1603 13.3354 27.4927 14.6111 27.4455C15.8595 27.3937 16.3257 26.6495 17.8326 26.6495C19.3255 26.6495 19.7629 27.4455 21.0645 27.4155C22.404 27.3937 23.248 26.2173 24.0529 25.0132C24.6523 24.1633 25.1135 23.2239 25.4195 22.23C23.8453 21.5642 22.794 19.9799 22.7922 18.2707Z" fill="#158ECE"/>
<path d="M20.3337 10.9899C21.0641 10.1132 21.4239 8.9862 21.3368 7.84839C20.2209 7.96559 19.1902 8.49889 18.4499 9.34204C17.7261 10.1658 17.3494 11.273 17.4206 12.3673C18.5369 12.3788 19.6342 11.8599 20.3337 10.9899Z" fill="#158ECE"/>
</svg>
