<svg width="14" height="13" viewBox="0 0 14 13" fill="none" xmlns="http://www.w3.org/2000/svg">
<path d="M12.6569 6C12.933 6 13.1569 6.22386 13.1569 6.5C13.1569 6.77614 12.933 7 12.6569 7L12.6569 6ZM0.9896 6.85355C0.794338 6.65829 0.794338 6.34171 0.9896 6.14645L4.17158 2.96447C4.36684 2.7692 4.68343 2.7692 4.87869 2.96447C5.07395 3.15973 5.07395 3.47631 4.87869 3.67157L2.05026 6.5L4.87869 9.32843C5.07395 9.52369 5.07395 9.84027 4.87869 10.0355C4.68343 10.2308 4.36684 10.2308 4.17158 10.0355L0.9896 6.85355ZM12.6569 7L1.34315 7L1.34315 6L12.6569 6L12.6569 7Z" fill="white"/>
</svg>
