<svg width="14" height="13" viewBox="0 0 14 13" fill="none" xmlns="http://www.w3.org/2000/svg">
<path d="M1.34314 6C1.067 6 0.84314 6.22386 0.84314 6.5C0.84314 6.77614 1.067 7 1.34314 7L1.34314 6ZM13.0104 6.85355C13.2057 6.65829 13.2057 6.34171 13.0104 6.14645L9.82842 2.96447C9.63316 2.7692 9.31657 2.7692 9.12131 2.96447C8.92605 3.15973 8.92605 3.47631 9.12131 3.67157L11.9497 6.5L9.12131 9.32843C8.92605 9.52369 8.92605 9.84027 9.12131 10.0355C9.31657 10.2308 9.63316 10.2308 9.82842 10.0355L13.0104 6.85355ZM1.34314 7L12.6568 7L12.6568 6L1.34314 6L1.34314 7Z" fill="white"/>
</svg>
