<svg width="12" height="14" viewBox="0 0 12 14" fill="none" xmlns="http://www.w3.org/2000/svg">
<g id="Group 86">
<path id="Arrow 24" d="M6.5 1.34314C6.5 1.067 6.27614 0.84314 6 0.84314C5.72386 0.84314 5.5 1.067 5.5 1.34314L6.5 1.34314ZM5.64645 13.0104C5.84171 13.2057 6.15829 13.2057 6.35355 13.0104L9.53553 9.82842C9.7308 9.63316 9.7308 9.31657 9.53553 9.12131C9.34027 8.92605 9.02369 8.92605 8.82843 9.12131L6 11.9497L3.17157 9.12131C2.97631 8.92605 2.65973 8.92605 2.46447 9.12131C2.2692 9.31657 2.2692 9.63316 2.46447 9.82842L5.64645 13.0104ZM5.5 1.34314L5.5 12.6568L6.5 12.6568L6.5 1.34314L5.5 1.34314Z" fill="url(#paint0_linear_1014_15694)"/>
</g>
<defs>
<linearGradient id="paint0_linear_1014_15694" x1="5.5" y1="1.34314" x2="5.5" y2="12.6568" gradientUnits="userSpaceOnUse">
<stop stop-color="#158ECE"/>
<stop offset="1" stop-color="#19E3E3"/>
</linearGradient>
</defs>
</svg>
