<svg width="16" height="22" viewBox="0 0 16 22" fill="none" xmlns="http://www.w3.org/2000/svg">
<path id="Vector" d="M5.7777 3.22222H4.66659C2.82564 3.22222 1.33325 4.71461 1.33325 6.55556V17.6667C1.33325 19.5076 2.82564 21 4.66659 21H11.3333C13.1742 21 14.6666 19.5076 14.6666 17.6667V6.55556C14.6666 4.71461 13.1742 3.22222 11.3333 3.22222H10.2221M5.7777 3.22222H10.2221M5.7777 3.22222C5.7777 1.99492 6.77262 1 7.99992 1C9.22722 1 10.2221 1.99492 10.2221 3.22222M8.75749 7.66667L5.22214 13.2222H7.24234V16.5556L10.7777 11H8.75749V7.66667Z" stroke="url(#paint0_linear_296_5697)" stroke-width="1.5" stroke-linejoin="round"/>
<defs>
<linearGradient id="paint0_linear_296_5697" x1="1.33325" y1="11" x2="14.6666" y2="11" gradientUnits="userSpaceOnUse">
<stop stop-color="#158ECE"/>
<stop offset="1" stop-color="#19E3E3"/>
</linearGradient>
</defs>
</svg>
