<svg width="51" height="50" viewBox="0 0 51 50" fill="none" xmlns="http://www.w3.org/2000/svg">
<rect x="0.75" y="0.25" width="49.5" height="49.5" rx="24.75" stroke="url(#paint0_linear_2027_3472)" stroke-opacity="0.5" stroke-width="0.5"/>
<path d="M19.96 26.0347L25.2801 17.4029C25.7267 16.6783 26.8435 16.9948 26.8435 17.846V21.8332C26.8435 22.2996 27.2216 22.6777 27.688 22.6777H30.3211C30.982 22.6777 31.3868 23.4026 31.04 23.9653L25.7199 32.5971C25.2733 33.3217 24.1565 33.0052 24.1565 32.154V28.1668C24.1565 27.7004 23.7784 27.3223 23.312 27.3223H20.6789C20.018 27.3223 19.6132 26.5974 19.96 26.0347Z" fill="url(#paint1_linear_2027_3472)"/>
<defs>
<linearGradient id="paint0_linear_2027_3472" x1="0.5" y1="25" x2="50.5" y2="25" gradientUnits="userSpaceOnUse">
<stop stop-color="#158ECE"/>
<stop offset="1" stop-color="#19E3E3"/>
</linearGradient>
<linearGradient id="paint1_linear_2027_3472" x1="19.8331" y1="25" x2="31.1669" y2="25" gradientUnits="userSpaceOnUse">
<stop stop-color="#158ECE"/>
<stop offset="1" stop-color="#19E3E3"/>
</linearGradient>
</defs>
</svg>
