<svg width="23" height="23" viewBox="0 0 23 23" fill="none" xmlns="http://www.w3.org/2000/svg">
<rect x="0.375" y="-0.375" width="21.25" height="21.25" rx="10.625" transform="matrix(1 0 0 -1 0.5 21.5)" stroke="white" stroke-opacity="0.3" stroke-width="0.75"/>
<path d="M12 16.9069C12 17.183 11.7761 17.4069 11.5 17.4069C11.2239 17.4069 11 17.183 11 16.9069L12 16.9069ZM11.1464 5.2396C11.3417 5.04434 11.6583 5.04434 11.8536 5.2396L15.0355 8.42158C15.2308 8.61684 15.2308 8.93343 15.0355 9.12869C14.8403 9.32395 14.5237 9.32395 14.3284 9.12869L11.5 6.30026L8.67157 9.12869C8.47631 9.32395 8.15973 9.32395 7.96447 9.12869C7.7692 8.93343 7.7692 8.61684 7.96447 8.42158L11.1464 5.2396ZM11 16.9069L11 5.59315L12 5.59315L12 16.9069L11 16.9069Z" fill="white"/>
</svg>
