<svg width="122" height="36" viewBox="0 0 122 36" fill="none" xmlns="http://www.w3.org/2000/svg">
<rect x="0.75" y="0.5" width="120.5" height="35" rx="4.5" stroke="white"/>
<path d="M61.5723 19.5759C59.4555 19.5759 57.7302 21.186 57.7302 23.4036C57.7302 25.6077 59.4555 27.2313 61.5723 27.2313C63.69 27.2313 65.4153 25.6077 65.4153 23.4036C65.4144 21.186 63.6891 19.5759 61.5723 19.5759ZM61.5723 25.7247C60.4122 25.7247 59.4123 24.768 59.4123 23.4045C59.4123 22.0266 60.4131 21.0843 61.5723 21.0843C62.7324 21.0843 63.7323 22.0266 63.7323 23.4045C63.7323 24.7671 62.7324 25.7247 61.5723 25.7247ZM53.1897 19.5759C51.0729 19.5759 49.3476 21.186 49.3476 23.4036C49.3476 25.6077 51.0729 27.2313 53.1897 27.2313C55.3074 27.2313 57.0327 25.6077 57.0327 23.4036C57.0327 21.186 55.3074 19.5759 53.1897 19.5759ZM53.1897 25.7247C52.0296 25.7247 51.0297 24.768 51.0297 23.4045C51.0297 22.0266 52.0305 21.0843 53.1897 21.0843C54.3498 21.0843 55.3497 22.0266 55.3497 23.4045C55.3506 24.7671 54.3498 25.7247 53.1897 25.7247ZM43.2195 20.7513V22.3749H47.1057C46.9896 23.2884 46.6854 23.9553 46.221 24.4188C45.6558 24.984 44.7711 25.6077 43.2195 25.6077C40.8273 25.6077 38.9571 23.679 38.9571 21.2868C38.9571 18.8946 40.8273 16.9659 43.2195 16.9659C44.5101 16.9659 45.4524 17.4735 46.1481 18.126L47.2938 16.9803C46.3218 16.0524 45.0321 15.3423 43.2195 15.3423C39.9426 15.3423 37.1877 18.0099 37.1877 21.2868C37.1877 24.5637 39.9426 27.2313 43.2195 27.2313C44.988 27.2313 46.3227 26.6508 47.3658 25.5636C48.4386 24.4908 48.7725 22.9824 48.7725 21.7647C48.7725 21.3885 48.7437 21.0402 48.6852 20.7504H43.2195V20.7513ZM83.9967 22.0122C83.6781 21.1572 82.7061 19.5759 80.7198 19.5759C78.7479 19.5759 77.109 21.1275 77.109 23.4036C77.109 25.5492 78.7335 27.2313 80.9079 27.2313C82.662 27.2313 83.6772 26.1585 84.0984 25.5348L82.7934 24.6645C82.3587 25.3026 81.7638 25.7229 80.9079 25.7229C80.0529 25.7229 79.4436 25.3314 79.0521 24.5628L84.1704 22.446L83.9967 22.0122ZM78.7767 23.2884C78.7335 21.8088 79.9224 21.0555 80.7783 21.0555C81.4452 21.0555 82.0104 21.3894 82.1994 21.8673L78.7767 23.2884ZM74.616 27H76.2972V15.7491H74.616V27ZM71.8602 20.4318H71.8026C71.4255 19.9818 70.7001 19.5759 69.7875 19.5759C67.8732 19.5759 66.1191 21.258 66.1191 23.4189C66.1191 25.5645 67.8732 27.2322 69.7875 27.2322C70.701 27.2322 71.4255 26.8263 71.8026 26.3628H71.8602V26.9136C71.8602 28.3779 71.0772 29.1609 69.8163 29.1609C68.7867 29.1609 68.1486 28.422 67.8876 27.7983L66.4233 28.4076C66.8436 29.4219 67.9596 30.6693 69.8163 30.6693C71.7882 30.6693 73.4559 29.5092 73.4559 26.6814V19.809H71.8611V20.4318H71.8602ZM69.9324 25.7247C68.7723 25.7247 67.8012 24.7527 67.8012 23.4189C67.8012 22.0698 68.7723 21.0843 69.9324 21.0843C71.0772 21.0843 71.9763 22.0698 71.9763 23.4189C71.9763 24.7527 71.0772 25.7247 69.9324 25.7247ZM91.8753 15.7491H87.8514V27H89.5299V22.7376H91.8744C93.7356 22.7376 95.5662 21.3903 95.5662 19.2438C95.5662 17.0973 93.7365 15.7491 91.8753 15.7491ZM91.9185 21.1716H89.5299V17.3151H91.9185C93.174 17.3151 93.8868 18.3546 93.8868 19.2438C93.8868 20.115 93.174 21.1716 91.9185 21.1716ZM102.297 19.5561C101.081 19.5561 99.8223 20.0916 99.3012 21.2787L100.792 21.9006C101.11 21.2787 101.704 21.0753 102.326 21.0753C103.195 21.0753 104.078 21.5964 104.092 22.5225V22.6386C103.788 22.4649 103.136 22.2048 102.341 22.2048C100.734 22.2048 99.0978 23.0877 99.0978 24.7374C99.0978 26.2431 100.415 27.2124 101.891 27.2124C103.02 27.2124 103.643 26.7057 104.033 26.1117H104.091V26.9802H105.713V22.6665C105.714 20.6703 104.222 19.5561 102.297 19.5561ZM102.094 25.722C101.545 25.722 100.777 25.4466 100.777 24.7662C100.777 23.8977 101.733 23.5647 102.558 23.5647C103.295 23.5647 103.644 23.724 104.092 23.9409C103.961 24.984 103.064 25.722 102.094 25.722ZM111.619 19.8018L109.694 24.6798H109.636L107.638 19.8018H105.829L108.825 26.6193L107.117 30.4119H108.868L113.486 19.8018H111.619ZM96.4932 27H98.1717V15.7491H96.4932V27Z" fill="white"/>
<path d="M42.9262 9.21862C42.9262 9.97282 42.703 10.5731 42.2557 11.0213C41.7481 11.5541 41.0857 11.8205 40.2721 11.8205C39.4927 11.8205 38.8294 11.5505 38.2849 11.0105C37.7395 10.4696 37.4668 9.80002 37.4668 9.00082C37.4668 8.20072 37.7395 7.53112 38.2849 6.99112C38.8294 6.45022 39.4927 6.18023 40.2721 6.18023C40.6591 6.18023 41.029 6.25582 41.38 6.40612C41.7319 6.55732 42.0136 6.75802 42.2242 7.00912L41.7499 7.48432C41.3926 7.05682 40.9003 6.84352 40.2712 6.84352C39.7024 6.84352 39.211 7.04333 38.7961 7.44293C38.3812 7.84253 38.1742 8.36182 38.1742 8.99992C38.1742 9.63802 38.3812 10.1573 38.7961 10.5569C39.211 10.9565 39.7024 11.1563 40.2712 11.1563C40.8742 11.1563 41.3773 10.9556 41.7796 10.5533C42.0406 10.2914 42.1918 9.92692 42.2323 9.45982H40.2712V8.81093H42.8875C42.9145 8.95223 42.9262 9.08812 42.9262 9.21862Z" fill="white"/>
<path d="M47.0753 6.96328H44.6165V8.67508H46.8341V9.32398H44.6165V11.0358H47.0753V11.7H43.9226V6.29998H47.0753V6.96328Z" fill="white"/>
<path d="M50.0011 11.7H49.3072V6.96328H47.7988V6.29998H51.5095V6.96328H50.0011V11.7Z" fill="white"/>
<path d="M54.1941 11.7V6.29998H54.888V11.7H54.1941Z" fill="white"/>
<path d="M57.9653 11.7H57.2714V6.96328H55.763V6.29998H59.4737V6.96328H57.9653V11.7Z" fill="white"/>
<path d="M66.498 11.0025C65.967 11.5479 65.3073 11.8206 64.518 11.8206C63.7287 11.8206 63.069 11.5479 62.5389 11.0025C62.0079 10.4571 61.7433 9.78927 61.7433 8.99997C61.7433 8.21067 62.0079 7.54287 62.5389 6.99747C63.069 6.45207 63.7287 6.17847 64.518 6.17847C65.3028 6.17847 65.9616 6.45297 66.4944 7.00107C67.0272 7.54917 67.2936 8.21517 67.2936 8.99997C67.2936 9.78927 67.0281 10.4571 66.498 11.0025ZM63.051 10.5498C63.4506 10.9548 63.9393 11.1564 64.518 11.1564C65.0967 11.1564 65.5863 10.9539 65.985 10.5498C66.3846 10.1448 66.5853 9.62817 66.5853 8.99997C66.5853 8.37177 66.3846 7.85517 65.985 7.45017C65.5863 7.04517 65.0967 6.84357 64.518 6.84357C63.9393 6.84357 63.4506 7.04607 63.051 7.45017C62.6523 7.85517 62.4516 8.37177 62.4516 8.99997C62.4516 9.62817 62.6523 10.1448 63.051 10.5498Z" fill="white"/>
<path d="M68.2674 11.7V6.29998H69.1116L71.736 10.5003H71.7657L71.736 9.45988V6.29998H72.4299V11.7H71.7054L68.9595 7.29538H68.9298L68.9595 8.33577V11.7H68.2674Z" fill="white"/>
<path d="M42.9262 9.21862C42.9262 9.97282 42.703 10.5731 42.2557 11.0213C41.7481 11.5541 41.0857 11.8205 40.2721 11.8205C39.4927 11.8205 38.8294 11.5505 38.2849 11.0105C37.7395 10.4696 37.4668 9.80002 37.4668 9.00082C37.4668 8.20072 37.7395 7.53112 38.2849 6.99112C38.8294 6.45022 39.4927 6.18023 40.2721 6.18023C40.6591 6.18023 41.029 6.25582 41.38 6.40612C41.7319 6.55732 42.0136 6.75802 42.2242 7.00912L41.7499 7.48432C41.3926 7.05682 40.9003 6.84352 40.2712 6.84352C39.7024 6.84352 39.211 7.04333 38.7961 7.44293C38.3812 7.84253 38.1742 8.36182 38.1742 8.99992C38.1742 9.63802 38.3812 10.1573 38.7961 10.5569C39.211 10.9565 39.7024 11.1563 40.2712 11.1563C40.8742 11.1563 41.3773 10.9556 41.7796 10.5533C42.0406 10.2914 42.1918 9.92692 42.2323 9.45982H40.2712V8.81093H42.8875C42.9145 8.95223 42.9262 9.08812 42.9262 9.21862Z" stroke="white" stroke-width="0.2" stroke-miterlimit="10"/>
<path d="M47.0753 6.96328H44.6165V8.67508H46.8341V9.32398H44.6165V11.0358H47.0753V11.7H43.9226V6.29998H47.0753V6.96328Z" stroke="white" stroke-width="0.2" stroke-miterlimit="10"/>
<path d="M50.0011 11.7H49.3072V6.96328H47.7988V6.29998H51.5095V6.96328H50.0011V11.7Z" stroke="white" stroke-width="0.2" stroke-miterlimit="10"/>
<path d="M54.1941 11.7V6.29998H54.888V11.7H54.1941Z" stroke="white" stroke-width="0.2" stroke-miterlimit="10"/>
<path d="M57.9653 11.7H57.2714V6.96328H55.763V6.29998H59.4737V6.96328H57.9653V11.7Z" stroke="white" stroke-width="0.2" stroke-miterlimit="10"/>
<path d="M66.498 11.0025C65.967 11.5479 65.3073 11.8206 64.518 11.8206C63.7287 11.8206 63.069 11.5479 62.5389 11.0025C62.0079 10.4571 61.7433 9.78927 61.7433 8.99997C61.7433 8.21067 62.0079 7.54287 62.5389 6.99747C63.069 6.45207 63.7287 6.17847 64.518 6.17847C65.3028 6.17847 65.9616 6.45297 66.4944 7.00107C67.0272 7.54917 67.2936 8.21517 67.2936 8.99997C67.2936 9.78927 67.0281 10.4571 66.498 11.0025ZM63.051 10.5498C63.4506 10.9548 63.9393 11.1564 64.518 11.1564C65.0967 11.1564 65.5863 10.9539 65.985 10.5498C66.3846 10.1448 66.5853 9.62817 66.5853 8.99997C66.5853 8.37177 66.3846 7.85517 65.985 7.45017C65.5863 7.04517 65.0967 6.84357 64.518 6.84357C63.9393 6.84357 63.4506 7.04607 63.051 7.45017C62.6523 7.85517 62.4516 8.37177 62.4516 8.99997C62.4516 9.62817 62.6523 10.1448 63.051 10.5498Z" stroke="white" stroke-width="0.2" stroke-miterlimit="10"/>
<path d="M68.2674 11.7V6.29998H69.1116L71.736 10.5003H71.7657L71.736 9.45988V6.29998H72.4299V11.7H71.7054L68.9595 7.29538H68.9298L68.9595 8.33577V11.7H68.2674Z" stroke="white" stroke-width="0.2" stroke-miterlimit="10"/>
<path fill-rule="evenodd" clip-rule="evenodd" d="M23.4745 12.7833L13.1498 6.79568C12.7582 6.56114 12.3012 6.42578 11.8121 6.42578C10.8216 6.42578 9.94831 7.0149 9.51403 7.84495L9.60341 7.93432L18.964 17.2929L23.4745 12.7833ZM9.22334 8.96838C9.22305 8.98379 9.2229 8.99923 9.2229 9.01469V26.9855C9.2229 27.001 9.22305 27.0164 9.22333 27.0317L18.2569 18L9.22334 8.96838ZM9.51405 28.1552C9.9484 28.9852 10.8218 29.5744 11.8121 29.5744C12.2907 29.5744 12.74 29.445 13.1252 29.2179L13.1558 29.2L23.4922 23.2342L18.964 18.707L9.60342 28.0658L9.51405 28.1552ZM24.389 22.7167L28.5715 20.3027C29.3836 19.8643 29.9348 19.0082 29.9348 18.021C29.9348 17.0409 29.391 16.189 28.587 15.7492L28.5778 15.7429L24.3696 13.3024L19.6712 18L24.389 22.7167Z" fill="white"/>
</svg>
