<svg width="122" height="36" viewBox="0 0 122 36" fill="none" xmlns="http://www.w3.org/2000/svg">
<rect x="0.5" y="0.5" width="120.5" height="35" rx="4.5" stroke="#158ECE"/>
<path d="M61.3223 19.576C59.2055 19.576 57.4802 21.1861 57.4802 23.4037C57.4802 25.6078 59.2055 27.2314 61.3223 27.2314C63.44 27.2314 65.1653 25.6078 65.1653 23.4037C65.1644 21.1861 63.4391 19.576 61.3223 19.576ZM61.3223 25.7248C60.1622 25.7248 59.1623 24.7681 59.1623 23.4046C59.1623 22.0267 60.1631 21.0844 61.3223 21.0844C62.4824 21.0844 63.4823 22.0267 63.4823 23.4046C63.4823 24.7672 62.4824 25.7248 61.3223 25.7248ZM52.9397 19.576C50.8229 19.576 49.0976 21.1861 49.0976 23.4037C49.0976 25.6078 50.8229 27.2314 52.9397 27.2314C55.0574 27.2314 56.7827 25.6078 56.7827 23.4037C56.7827 21.1861 55.0574 19.576 52.9397 19.576ZM52.9397 25.7248C51.7796 25.7248 50.7797 24.7681 50.7797 23.4046C50.7797 22.0267 51.7805 21.0844 52.9397 21.0844C54.0998 21.0844 55.0997 22.0267 55.0997 23.4046C55.1006 24.7672 54.0998 25.7248 52.9397 25.7248ZM42.9695 20.7514V22.375H46.8557C46.7396 23.2885 46.4354 23.9554 45.971 24.4189C45.4058 24.9841 44.5211 25.6078 42.9695 25.6078C40.5773 25.6078 38.7071 23.6791 38.7071 21.2869C38.7071 18.8947 40.5773 16.966 42.9695 16.966C44.2601 16.966 45.2024 17.4736 45.8981 18.1261L47.0438 16.9804C46.0718 16.0525 44.7821 15.3424 42.9695 15.3424C39.6926 15.3424 36.9377 18.01 36.9377 21.2869C36.9377 24.5638 39.6926 27.2314 42.9695 27.2314C44.738 27.2314 46.0727 26.6509 47.1158 25.5637C48.1886 24.4909 48.5225 22.9825 48.5225 21.7648C48.5225 21.3886 48.4937 21.0403 48.4352 20.7505H42.9695V20.7514ZM83.7467 22.0123C83.4281 21.1573 82.4561 19.576 80.4698 19.576C78.4979 19.576 76.859 21.1276 76.859 23.4037C76.859 25.5493 78.4835 27.2314 80.6579 27.2314C82.412 27.2314 83.4272 26.1586 83.8484 25.5349L82.5434 24.6646C82.1087 25.3027 81.5138 25.723 80.6579 25.723C79.8029 25.723 79.1936 25.3315 78.8021 24.5629L83.9204 22.4461L83.7467 22.0123ZM78.5267 23.2885C78.4835 21.8089 79.6724 21.0556 80.5283 21.0556C81.1952 21.0556 81.7604 21.3895 81.9494 21.8674L78.5267 23.2885ZM74.366 27.0001H76.0472V15.7492H74.366V27.0001ZM71.6102 20.4319H71.5526C71.1755 19.9819 70.4501 19.576 69.5375 19.576C67.6232 19.576 65.8691 21.2581 65.8691 23.419C65.8691 25.5646 67.6232 27.2323 69.5375 27.2323C70.451 27.2323 71.1755 26.8264 71.5526 26.3629H71.6102V26.9137C71.6102 28.378 70.8272 29.161 69.5663 29.161C68.5367 29.161 67.8986 28.4221 67.6376 27.7984L66.1733 28.4077C66.5936 29.422 67.7096 30.6694 69.5663 30.6694C71.5382 30.6694 73.2059 29.5093 73.2059 26.6815V19.8091H71.6111V20.4319H71.6102ZM69.6824 25.7248C68.5223 25.7248 67.5512 24.7528 67.5512 23.419C67.5512 22.0699 68.5223 21.0844 69.6824 21.0844C70.8272 21.0844 71.7263 22.0699 71.7263 23.419C71.7263 24.7528 70.8272 25.7248 69.6824 25.7248ZM91.6253 15.7492H87.6014V27.0001H89.2799V22.7377H91.6244C93.4856 22.7377 95.3162 21.3904 95.3162 19.2439C95.3162 17.0974 93.4865 15.7492 91.6253 15.7492ZM91.6685 21.1717H89.2799V17.3152H91.6685C92.924 17.3152 93.6368 18.3547 93.6368 19.2439C93.6368 20.1151 92.924 21.1717 91.6685 21.1717ZM102.047 19.5562C100.831 19.5562 99.5723 20.0917 99.0512 21.2788L100.542 21.9007C100.86 21.2788 101.454 21.0754 102.076 21.0754C102.945 21.0754 103.828 21.5965 103.842 22.5226V22.6387C103.538 22.465 102.886 22.2049 102.091 22.2049C100.484 22.2049 98.8478 23.0878 98.8478 24.7375C98.8478 26.2432 100.165 27.2125 101.641 27.2125C102.77 27.2125 103.393 26.7058 103.783 26.1118H103.841V26.9803H105.463V22.6666C105.464 20.6704 103.972 19.5562 102.047 19.5562ZM101.844 25.7221C101.295 25.7221 100.527 25.4467 100.527 24.7663C100.527 23.8978 101.483 23.5648 102.308 23.5648C103.045 23.5648 103.394 23.7241 103.842 23.941C103.711 24.9841 102.814 25.7221 101.844 25.7221ZM111.369 19.8019L109.444 24.6799H109.386L107.388 19.8019H105.579L108.575 26.6194L106.867 30.412H108.618L113.236 19.8019H111.369ZM96.2432 27.0001H97.9217V15.7492H96.2432V27.0001Z" fill="#158ECE"/>
<path d="M42.6762 9.21862C42.6762 9.97282 42.453 10.5731 42.0057 11.0213C41.4981 11.5541 40.8357 11.8205 40.0221 11.8205C39.2427 11.8205 38.5794 11.5505 38.0349 11.0105C37.4895 10.4696 37.2168 9.80002 37.2168 9.00082C37.2168 8.20072 37.4895 7.53112 38.0349 6.99112C38.5794 6.45022 39.2427 6.18023 40.0221 6.18023C40.4091 6.18023 40.779 6.25582 41.13 6.40612C41.4819 6.55732 41.7636 6.75802 41.9742 7.00912L41.4999 7.48432C41.1426 7.05682 40.6503 6.84352 40.0212 6.84352C39.4524 6.84352 38.961 7.04333 38.5461 7.44293C38.1312 7.84253 37.9242 8.36182 37.9242 8.99992C37.9242 9.63802 38.1312 10.1573 38.5461 10.5569C38.961 10.9565 39.4524 11.1563 40.0212 11.1563C40.6242 11.1563 41.1273 10.9556 41.5296 10.5533C41.7906 10.2914 41.9418 9.92692 41.9823 9.45982H40.0212V8.81093H42.6375C42.6645 8.95223 42.6762 9.08812 42.6762 9.21862Z" fill="#158ECE"/>
<path d="M46.8253 6.96328H44.3665V8.67508H46.5841V9.32398H44.3665V11.0358H46.8253V11.7H43.6726V6.29998H46.8253V6.96328Z" fill="#158ECE"/>
<path d="M49.7511 11.7H49.0572V6.96328H47.5488V6.29998H51.2595V6.96328H49.7511V11.7Z" fill="#158ECE"/>
<path d="M53.9441 11.7V6.29998H54.638V11.7H53.9441Z" fill="#158ECE"/>
<path d="M57.7153 11.7H57.0214V6.96328H55.513V6.29998H59.2237V6.96328H57.7153V11.7Z" fill="#158ECE"/>
<path d="M66.248 11.0025C65.717 11.5479 65.0573 11.8206 64.268 11.8206C63.4787 11.8206 62.819 11.5479 62.2889 11.0025C61.7579 10.4571 61.4933 9.78927 61.4933 8.99997C61.4933 8.21067 61.7579 7.54287 62.2889 6.99747C62.819 6.45207 63.4787 6.17847 64.268 6.17847C65.0528 6.17847 65.7116 6.45297 66.2444 7.00107C66.7772 7.54917 67.0436 8.21517 67.0436 8.99997C67.0436 9.78927 66.7781 10.4571 66.248 11.0025ZM62.801 10.5498C63.2006 10.9548 63.6893 11.1564 64.268 11.1564C64.8467 11.1564 65.3363 10.9539 65.735 10.5498C66.1346 10.1448 66.3353 9.62817 66.3353 8.99997C66.3353 8.37177 66.1346 7.85517 65.735 7.45017C65.3363 7.04517 64.8467 6.84357 64.268 6.84357C63.6893 6.84357 63.2006 7.04607 62.801 7.45017C62.4023 7.85517 62.2016 8.37177 62.2016 8.99997C62.2016 9.62817 62.4023 10.1448 62.801 10.5498Z" fill="#158ECE"/>
<path d="M68.0174 11.7V6.29998H68.8616L71.486 10.5003H71.5157L71.486 9.45988V6.29998H72.1799V11.7H71.4554L68.7095 7.29538H68.6798L68.7095 8.33577V11.7H68.0174Z" fill="#158ECE"/>
<path d="M42.6762 9.21862C42.6762 9.97282 42.453 10.5731 42.0057 11.0213C41.4981 11.5541 40.8357 11.8205 40.0221 11.8205C39.2427 11.8205 38.5794 11.5505 38.0349 11.0105C37.4895 10.4696 37.2168 9.80002 37.2168 9.00082C37.2168 8.20072 37.4895 7.53112 38.0349 6.99112C38.5794 6.45022 39.2427 6.18023 40.0221 6.18023C40.4091 6.18023 40.779 6.25582 41.13 6.40612C41.4819 6.55732 41.7636 6.75802 41.9742 7.00912L41.4999 7.48432C41.1426 7.05682 40.6503 6.84352 40.0212 6.84352C39.4524 6.84352 38.961 7.04333 38.5461 7.44293C38.1312 7.84253 37.9242 8.36182 37.9242 8.99992C37.9242 9.63802 38.1312 10.1573 38.5461 10.5569C38.961 10.9565 39.4524 11.1563 40.0212 11.1563C40.6242 11.1563 41.1273 10.9556 41.5296 10.5533C41.7906 10.2914 41.9418 9.92692 41.9823 9.45982H40.0212V8.81093H42.6375C42.6645 8.95223 42.6762 9.08812 42.6762 9.21862Z" stroke="#158ECE" stroke-width="0.2" stroke-miterlimit="10"/>
<path d="M46.8253 6.96328H44.3665V8.67508H46.5841V9.32398H44.3665V11.0358H46.8253V11.7H43.6726V6.29998H46.8253V6.96328Z" stroke="#158ECE" stroke-width="0.2" stroke-miterlimit="10"/>
<path d="M49.7511 11.7H49.0572V6.96328H47.5488V6.29998H51.2595V6.96328H49.7511V11.7Z" stroke="#158ECE" stroke-width="0.2" stroke-miterlimit="10"/>
<path d="M53.9441 11.7V6.29998H54.638V11.7H53.9441Z" stroke="#158ECE" stroke-width="0.2" stroke-miterlimit="10"/>
<path d="M57.7153 11.7H57.0214V6.96328H55.513V6.29998H59.2237V6.96328H57.7153V11.7Z" stroke="#158ECE" stroke-width="0.2" stroke-miterlimit="10"/>
<path d="M66.248 11.0025C65.717 11.5479 65.0573 11.8206 64.268 11.8206C63.4787 11.8206 62.819 11.5479 62.2889 11.0025C61.7579 10.4571 61.4933 9.78927 61.4933 8.99997C61.4933 8.21067 61.7579 7.54287 62.2889 6.99747C62.819 6.45207 63.4787 6.17847 64.268 6.17847C65.0528 6.17847 65.7116 6.45297 66.2444 7.00107C66.7772 7.54917 67.0436 8.21517 67.0436 8.99997C67.0436 9.78927 66.7781 10.4571 66.248 11.0025ZM62.801 10.5498C63.2006 10.9548 63.6893 11.1564 64.268 11.1564C64.8467 11.1564 65.3363 10.9539 65.735 10.5498C66.1346 10.1448 66.3353 9.62817 66.3353 8.99997C66.3353 8.37177 66.1346 7.85517 65.735 7.45017C65.3363 7.04517 64.8467 6.84357 64.268 6.84357C63.6893 6.84357 63.2006 7.04607 62.801 7.45017C62.4023 7.85517 62.2016 8.37177 62.2016 8.99997C62.2016 9.62817 62.4023 10.1448 62.801 10.5498Z" stroke="#158ECE" stroke-width="0.2" stroke-miterlimit="10"/>
<path d="M68.0174 11.7V6.29998H68.8616L71.486 10.5003H71.5157L71.486 9.45988V6.29998H72.1799V11.7H71.4554L68.7095 7.29538H68.6798L68.7095 8.33577V11.7H68.0174Z" stroke="#158ECE" stroke-width="0.2" stroke-miterlimit="10"/>
<path fill-rule="evenodd" clip-rule="evenodd" d="M23.2245 12.7833L12.8998 6.79562C12.5082 6.56108 12.0512 6.42572 11.5621 6.42572C10.5716 6.42572 9.69831 7.01484 9.26403 7.84489L9.35341 7.93426L18.714 17.2929L23.2245 12.7833ZM8.97334 8.96832C8.97305 8.98373 8.9729 8.99917 8.9729 9.01463V26.9855C8.9729 27.0009 8.97305 27.0163 8.97333 27.0317L18.0069 17.9999L8.97334 8.96832ZM9.26405 28.1551C9.6984 28.9852 10.5718 29.5743 11.5621 29.5743C12.0407 29.5743 12.49 29.445 12.8752 29.2178L12.9058 29.1999L23.2422 23.2342L18.714 18.7069L9.35342 28.0658L9.26405 28.1551ZM24.139 22.7166L28.3215 20.3026C29.1336 19.8642 29.6848 19.0081 29.6848 18.0209C29.6848 17.0408 29.141 16.189 28.337 15.7492L28.3278 15.7429L24.1196 13.3024L19.4212 17.9999L24.139 22.7166Z" fill="#158ECE"/>
</svg>
