<svg width="13" height="13" viewBox="0 0 13 13" fill="none" xmlns="http://www.w3.org/2000/svg">
<path id="Instagram" d="M6.13354 1.6C7.73354 1.6 7.93354 1.6 8.58354 1.65C10.2335 1.7 10.9835 2.5 11.0335 4.1C11.0835 4.75 11.0835 4.9 11.0835 6.5C11.0835 8.1 11.0835 8.3 11.0335 8.9C10.9835 10.5 10.1835 11.3 8.58354 11.35C7.93354 11.4 7.78355 11.4 6.13354 11.4C4.53355 11.4 4.33354 11.4 3.73354 11.35C2.08354 11.3 1.33354 10.5 1.28354 8.9C1.23354 8.25 1.23354 8.1 1.23354 6.5C1.23354 4.9 1.23354 4.7 1.28354 4.1C1.33354 2.5 2.13354 1.7 3.73354 1.65C4.33354 1.6 4.53355 1.6 6.13354 1.6ZM6.13354 0.5C4.48354 0.5 4.28355 0.5 3.68354 0.55C1.48354 0.65 0.283545 1.85 0.183545 4.05C0.133545 4.65 0.133545 4.85 0.133545 6.5C0.133545 8.15 0.133545 8.35 0.183545 8.95C0.283545 11.15 1.48354 12.35 3.68354 12.45C4.28355 12.5 4.48354 12.5 6.13354 12.5C7.78355 12.5 7.98354 12.5 8.58354 12.45C10.7835 12.35 11.9835 11.15 12.0835 8.95C12.1335 8.35 12.1335 8.15 12.1335 6.5C12.1335 4.85 12.1335 4.65 12.0835 4.05C11.9835 1.85 10.7835 0.65 8.58354 0.55C7.98354 0.5 7.78355 0.5 6.13354 0.5ZM6.13354 3.4C4.43355 3.4 3.03355 4.8 3.03355 6.5C3.03355 8.2 4.43355 9.6 6.13354 9.6C7.83354 9.6 9.23355 8.2 9.23355 6.5C9.23355 4.8 7.83354 3.4 6.13354 3.4ZM6.13354 8.5C5.03355 8.5 4.13354 7.6 4.13354 6.5C4.13354 5.4 5.03355 4.5 6.13354 4.5C7.23354 4.5 8.13354 5.4 8.13354 6.5C8.13354 7.6 7.23354 8.5 6.13354 8.5ZM9.33354 2.6C8.93355 2.6 8.63354 2.9 8.63354 3.3C8.63354 3.7 8.93355 4 9.33354 4C9.73354 4 10.0335 3.7 10.0335 3.3C10.0335 2.9 9.73354 2.6 9.33354 2.6Z" fill="url(#paint0_linear_626_3376)"/>
<defs>
<linearGradient id="paint0_linear_626_3376" x1="0.133545" y1="6.5" x2="12.1335" y2="6.5" gradientUnits="userSpaceOnUse">
<stop stop-color="#158ECE"/>
<stop offset="1" stop-color="#19E3E3"/>
</linearGradient>
</defs>
</svg>
