<svg width="30" height="30" viewBox="0 0 30 30" fill="none" xmlns="http://www.w3.org/2000/svg">
<rect width="30" height="30" rx="15" fill="#111111"/>
<path d="M15 10.1C16.6 10.1 16.8 10.1 17.45 10.15C19.1 10.2 19.85 11 19.9 12.6C19.95 13.25 19.95 13.4 19.95 15C19.95 16.6 19.95 16.8 19.9 17.4C19.85 19 19.05 19.8 17.45 19.85C16.8 19.9 16.65 19.9 15 19.9C13.4 19.9 13.2 19.9 12.6 19.85C10.95 19.8 10.2 19 10.15 17.4C10.1 16.75 10.1 16.6 10.1 15C10.1 13.4 10.1 13.2 10.15 12.6C10.2 11 11 10.2 12.6 10.15C13.2 10.1 13.4 10.1 15 10.1ZM15 9C13.35 9 13.15 9 12.55 9.05C10.35 9.15 9.15 10.35 9.05 12.55C9 13.15 9 13.35 9 15C9 16.65 9 16.85 9.05 17.45C9.15 19.65 10.35 20.85 12.55 20.95C13.15 21 13.35 21 15 21C16.65 21 16.85 21 17.45 20.95C19.65 20.85 20.85 19.65 20.95 17.45C21 16.85 21 16.65 21 15C21 13.35 21 13.15 20.95 12.55C20.85 10.35 19.65 9.15 17.45 9.05C16.85 9 16.65 9 15 9ZM15 11.9C13.3 11.9 11.9 13.3 11.9 15C11.9 16.7 13.3 18.1 15 18.1C16.7 18.1 18.1 16.7 18.1 15C18.1 13.3 16.7 11.9 15 11.9ZM15 17C13.9 17 13 16.1 13 15C13 13.9 13.9 13 15 13C16.1 13 17 13.9 17 15C17 16.1 16.1 17 15 17ZM18.2 11.1C17.8 11.1 17.5 11.4 17.5 11.8C17.5 12.2 17.8 12.5 18.2 12.5C18.6 12.5 18.9 12.2 18.9 11.8C18.9 11.4 18.6 11.1 18.2 11.1Z" fill="white"/>
</svg>
