<svg width="109" height="37" viewBox="0 0 109 37" fill="none" xmlns="http://www.w3.org/2000/svg">
<rect x="0.633545" y="1" width="107" height="35" rx="6.5" stroke="white"/>
<path d="M73.5068 17.7808V19.8427H72.2144V21.1949H73.5068V25.7894C73.5068 27.3583 74.2165 27.9858 76.002 27.9858C76.3158 27.9858 76.6146 27.9484 76.8761 27.9036V26.5664C76.652 26.5888 76.51 26.6037 76.2635 26.6037C75.4641 26.6037 75.113 26.2302 75.113 25.3785V21.1949H76.8761V19.8427H75.113V17.7808H73.5068Z" fill="white"/>
<path d="M81.4246 28.0979C83.8002 28.0979 85.257 26.5066 85.257 23.8694C85.257 21.2472 83.7928 19.6485 81.4246 19.6485C79.0489 19.6485 77.5846 21.2472 77.5846 23.8694C77.5846 26.5066 79.0414 28.0979 81.4246 28.0979ZM81.4246 26.671C80.0275 26.671 79.2431 25.6475 79.2431 23.8694C79.2431 22.1064 80.0275 21.0754 81.4246 21.0754C82.8141 21.0754 83.606 22.1064 83.606 23.8694C83.606 25.64 82.8141 26.671 81.4246 26.671Z" fill="white"/>
<path d="M86.5034 27.941H88.1096V23.1373C88.1096 21.9943 88.9688 21.2248 90.1865 21.2248C90.4704 21.2248 90.9485 21.2771 91.083 21.3219V19.7381C90.9112 19.6933 90.6049 19.6709 90.3658 19.6709C89.305 19.6709 88.401 20.2536 88.1694 21.053H88.0499V19.8054H86.5034V27.941Z" fill="white"/>
<path d="M95.0711 21.0156C96.259 21.0156 97.0359 21.8449 97.0733 23.1224H92.9644C93.0541 21.8524 93.8833 21.0156 95.0711 21.0156ZM97.0658 25.7446C96.767 26.3796 96.1021 26.7307 95.1309 26.7307C93.8459 26.7307 93.0167 25.8268 92.9644 24.3999V24.3102H98.7094V23.7499C98.7094 21.1949 97.3422 19.6485 95.0786 19.6485C92.7851 19.6485 91.3283 21.2995 91.3283 23.8993C91.3283 26.4991 92.7552 28.0979 95.0861 28.0979C96.9463 28.0979 98.2462 27.2014 98.6123 25.7446H97.0658Z" fill="white"/>
<path d="M62.9736 24.9366C63.0975 26.9344 64.7623 28.212 67.2401 28.212C69.8882 28.212 71.5453 26.8724 71.5453 24.7353C71.5453 23.055 70.6006 22.1259 68.3086 21.5916L67.0775 21.2896C65.6217 20.9489 65.0333 20.4921 65.0333 19.6945C65.0333 18.6879 65.947 18.0297 67.3175 18.0297C68.6184 18.0297 69.5166 18.6724 69.6792 19.7023H71.3672C71.2665 17.8207 69.6095 16.4966 67.3407 16.4966C64.9016 16.4966 63.2756 17.8207 63.2756 19.8107C63.2756 21.4522 64.197 22.4278 66.218 22.9002L67.6582 23.2486C69.1371 23.5971 69.7876 24.1081 69.7876 24.9599C69.7876 25.951 68.7655 26.6711 67.3717 26.6711C65.8773 26.6711 64.8397 25.9974 64.6926 24.9366H62.9736Z" fill="white"/>
<path d="M46.335 19.6709C45.2293 19.6709 44.2731 20.2237 43.78 21.1501H43.6605V19.8054H42.114V30.6454H43.7202V26.7083H43.8472C44.2731 27.5674 45.192 28.0755 46.3499 28.0755C48.4044 28.0755 49.7117 26.4543 49.7117 23.8694C49.7117 21.2846 48.4044 19.6709 46.335 19.6709ZM45.8793 26.6336C44.5345 26.6336 43.6904 25.5728 43.6904 23.8769C43.6904 22.1736 44.5345 21.1128 45.8867 21.1128C47.2464 21.1128 48.0607 22.1512 48.0607 23.8694C48.0607 25.5952 47.2464 26.6336 45.8793 26.6336Z" fill="white"/>
<path d="M55.3321 19.6709C54.2264 19.6709 53.2702 20.2237 52.7771 21.1501H52.6576V19.8054H51.1112V30.6454H52.7174V26.7083H52.8444C53.2702 27.5674 54.1891 28.0755 55.347 28.0755C57.4015 28.0755 58.7089 26.4543 58.7089 23.8694C58.7089 21.2846 57.4015 19.6709 55.3321 19.6709ZM54.8764 26.6336C53.5317 26.6336 52.6875 25.5728 52.6875 23.8769C52.6875 22.1736 53.5317 21.1128 54.8839 21.1128C56.2435 21.1128 57.0578 22.1512 57.0578 23.8694C57.0578 25.5952 56.2435 26.6336 54.8764 26.6336Z" fill="white"/>
<path d="M39.2322 27.941H41.0751L37.0409 16.7676H35.1748L31.1406 27.941H32.9216L33.9514 24.9753H38.2101L39.2322 27.941ZM36.0188 18.7963H36.1505L37.7688 23.5196H34.3928L36.0188 18.7963Z" fill="white"/>
<path d="M32.2195 8.33992V13.73H34.1656C35.7718 13.73 36.7019 12.7402 36.7019 11.0182C36.7019 9.32231 35.7643 8.33992 34.1656 8.33992H32.2195ZM33.0562 9.10193H34.0722C35.1891 9.10193 35.8502 9.81165 35.8502 11.0294C35.8502 12.2658 35.2003 12.968 34.0722 12.968H33.0562V9.10193Z" fill="white"/>
<path d="M39.5505 13.8085C40.7383 13.8085 41.4667 13.0128 41.4667 11.6943C41.4667 10.3832 40.7346 9.58379 39.5505 9.58379C38.3626 9.58379 37.6305 10.3832 37.6305 11.6943C37.6305 13.0128 38.3589 13.8085 39.5505 13.8085ZM39.5505 13.095C38.852 13.095 38.4598 12.5833 38.4598 11.6943C38.4598 10.8127 38.852 10.2972 39.5505 10.2972C40.2453 10.2972 40.6412 10.8127 40.6412 11.6943C40.6412 12.5795 40.2453 13.095 39.5505 13.095Z" fill="white"/>
<path d="M47.6696 9.66223H46.8665L46.1419 12.7663H46.0784L45.2417 9.66223H44.4722L43.6355 12.7663H43.5757L42.8473 9.66223H42.033L43.1536 13.73H43.9791L44.8158 10.7343H44.8793L45.7198 13.73H46.5528L47.6696 9.66223Z" fill="white"/>
<path d="M48.5945 13.73H49.3976V11.3506C49.3976 10.7156 49.7749 10.3197 50.3688 10.3197C50.9627 10.3197 51.2466 10.6446 51.2466 11.2983V13.73H52.0497V11.0966C52.0497 10.1292 51.5492 9.58379 50.6415 9.58379C50.0289 9.58379 49.6255 9.85647 49.4275 10.3084H49.3677V9.66223H48.5945V13.73Z" fill="white"/>
<path d="M53.3145 13.73H54.1176V8.07471H53.3145V13.73Z" fill="white"/>
<path d="M57.138 13.8085C58.3259 13.8085 59.0542 13.0128 59.0542 11.6943C59.0542 10.3832 58.3221 9.58379 57.138 9.58379C55.9502 9.58379 55.218 10.3832 55.218 11.6943C55.218 13.0128 55.9464 13.8085 57.138 13.8085ZM57.138 13.095C56.4395 13.095 56.0473 12.5833 56.0473 11.6943C56.0473 10.8127 56.4395 10.2972 57.138 10.2972C57.8328 10.2972 58.2287 10.8127 58.2287 11.6943C58.2287 12.5795 57.8328 13.095 57.138 13.095Z" fill="white"/>
<path d="M61.4471 13.1212C61.0101 13.1212 60.6926 12.9083 60.6926 12.5422C60.6926 12.1836 60.9466 11.9931 61.5069 11.9557L62.5005 11.8922V12.2322C62.5005 12.7364 62.0522 13.1212 61.4471 13.1212ZM61.2417 13.7973C61.7758 13.7973 62.2203 13.5657 62.4631 13.1585H62.5266V13.73H63.2998V10.9509C63.2998 10.0918 62.7246 9.58379 61.7048 9.58379C60.7822 9.58379 60.1248 10.032 60.0426 10.7305H60.8196C60.9092 10.4429 61.2193 10.2786 61.6675 10.2786C62.2166 10.2786 62.5005 10.5214 62.5005 10.9509V11.3021L61.3986 11.3656C60.4311 11.4253 59.8857 11.8474 59.8857 12.5795C59.8857 13.3229 60.4572 13.7973 61.2417 13.7973Z" fill="white"/>
<path d="M66.0252 13.7973C66.5855 13.7973 67.0598 13.5321 67.3026 13.0875H67.3661V13.73H68.1356V8.07471H67.3325V10.3084H67.2728C67.0524 9.86021 66.5817 9.595 66.0252 9.595C64.9979 9.595 64.3368 10.4093 64.3368 11.6943C64.3368 12.983 64.9905 13.7973 66.0252 13.7973ZM66.253 10.3159C66.9254 10.3159 67.3475 10.8501 67.3475 11.698C67.3475 12.5497 66.9291 13.0763 66.253 13.0763C65.5732 13.0763 65.166 12.5571 65.166 11.6943C65.166 10.8389 65.5769 10.3159 66.253 10.3159Z" fill="white"/>
<path d="M73.3435 13.8085C74.5313 13.8085 75.2597 13.0128 75.2597 11.6943C75.2597 10.3832 74.5276 9.58379 73.3435 9.58379C72.1556 9.58379 71.4235 10.3832 71.4235 11.6943C71.4235 13.0128 72.1519 13.8085 73.3435 13.8085ZM73.3435 13.095C72.645 13.095 72.2527 12.5833 72.2527 11.6943C72.2527 10.8127 72.645 10.2972 73.3435 10.2972C74.0382 10.2972 74.4342 10.8127 74.4342 11.6943C74.4342 12.5795 74.0382 13.095 73.3435 13.095Z" fill="white"/>
<path d="M76.3228 13.73H77.1259V11.3506C77.1259 10.7156 77.5031 10.3197 78.0971 10.3197C78.691 10.3197 78.9749 10.6446 78.9749 11.2983V13.73H79.778V11.0966C79.778 10.1292 79.2774 9.58379 78.3698 9.58379C77.7572 9.58379 77.3537 9.85647 77.1558 10.3084H77.096V9.66223H76.3228V13.73Z" fill="white"/>
<path d="M83.4767 8.64995V9.68091H82.8305V10.357H83.4767V12.6542C83.4767 13.4387 83.8316 13.7524 84.7243 13.7524C84.8812 13.7524 85.0306 13.7338 85.1614 13.7114V13.0427C85.0493 13.0539 84.9783 13.0614 84.8551 13.0614C84.4554 13.0614 84.2798 12.8746 84.2798 12.4488V10.357H85.1614V9.68091H84.2798V8.64995H83.4767Z" fill="white"/>
<path d="M86.2394 13.73H87.0425V11.3543C87.0425 10.738 87.4086 10.3234 88.066 10.3234C88.6337 10.3234 88.9363 10.6521 88.9363 11.3021V13.73H89.7394V11.1041C89.7394 10.1366 89.2053 9.58752 88.3387 9.58752C87.7261 9.58752 87.2965 9.86021 87.0985 10.3159H87.035V8.07471H86.2394V13.73Z" fill="white"/>
<path d="M92.6365 10.2674C93.2305 10.2674 93.6189 10.682 93.6376 11.3207H91.5832C91.628 10.6857 92.0426 10.2674 92.6365 10.2674ZM93.6339 12.6318C93.4845 12.9493 93.152 13.1249 92.6664 13.1249C92.0239 13.1249 91.6093 12.6729 91.5832 11.9595V11.9146H94.4557V11.6345C94.4557 10.357 93.7721 9.58379 92.6403 9.58379C91.4935 9.58379 90.7651 10.4093 90.7651 11.7092C90.7651 13.0091 91.4786 13.8085 92.644 13.8085C93.5741 13.8085 94.2241 13.3602 94.4071 12.6318H93.6339Z" fill="white"/>
<path d="M22.4257 18.771C22.4452 17.2581 23.2577 15.8265 24.5466 15.0341C23.7335 13.8728 22.3716 13.1365 20.9546 13.0922C19.4433 12.9336 17.9781 13.9965 17.208 13.9965C16.4229 13.9965 15.2372 13.1079 13.9603 13.1342C12.296 13.188 10.7444 14.1342 9.93471 15.5893C8.19411 18.6029 9.49244 23.0318 11.1598 25.4678C11.994 26.6606 12.9689 27.993 14.2447 27.9457C15.493 27.894 15.9592 27.1497 17.4661 27.1497C18.959 27.1497 19.3964 27.9457 20.698 27.9157C22.0376 27.8939 22.8815 26.7176 23.6865 25.5135C24.2859 24.6635 24.7471 23.7242 25.0531 22.7302C23.4788 22.0644 22.4276 20.4802 22.4257 18.771Z" fill="white"/>
<path d="M19.9672 11.4902C20.6976 10.6134 21.0574 9.48644 20.9703 8.34863C19.8545 8.46583 18.8237 8.99913 18.0835 9.84228C17.3596 10.6661 16.9829 11.7732 17.0541 12.8675C18.1704 12.879 19.2678 12.3602 19.9672 11.4902Z" fill="white"/>
</svg>
