<svg width="14" height="13" viewBox="0 0 14 13" fill="none" xmlns="http://www.w3.org/2000/svg">
<path id="Linkedin" d="M3.48125 1.80435C3.48125 2.53478 2.90734 3.1087 2.17691 3.1087C1.44647 3.1087 0.872559 2.53478 0.872559 1.80435C0.872559 1.07391 1.44647 0.5 2.17691 0.5C2.90734 0.5 3.48125 1.07391 3.48125 1.80435ZM3.48125 4.15217H0.872559V12.5H3.48125V4.15217ZM7.65517 4.15217H5.04647V12.5H7.65517V8.11739C7.65517 5.66522 10.7856 5.45652 10.7856 8.11739V12.5H13.3943V7.23043C13.3943 3.1087 8.75082 3.26522 7.65517 5.3V4.15217Z" fill="url(#paint0_linear_626_3374)"/>
<defs>
<linearGradient id="paint0_linear_626_3374" x1="0.872559" y1="6.5" x2="13.3943" y2="6.5" gradientUnits="userSpaceOnUse">
<stop stop-color="#158ECE"/>
<stop offset="1" stop-color="#19E3E3"/>
</linearGradient>
</defs>
</svg>
