<svg width="14" height="16" viewBox="0 0 14 16" fill="none" xmlns="http://www.w3.org/2000/svg">
<path d="M4.75 6.99978C4.75 7.59652 4.98705 8.16881 5.40901 8.59077C5.83096 9.01273 6.40326 9.24978 7 9.24978C7.59673 9.24978 8.16903 9.01273 8.59099 8.59077C9.01294 8.16881 9.25 7.59652 9.25 6.99978C9.25 6.40304 9.01294 5.83075 8.59099 5.40879C8.16903 4.98683 7.59673 4.74978 7 4.74978C6.40326 4.74978 5.83096 4.98683 5.40901 5.40879C4.98705 5.83075 4.75 6.40304 4.75 6.99978Z" stroke="url(#paint0_linear_364_8462)" stroke-linecap="round" stroke-linejoin="round"/>
<path d="M11.2427 11.2425L8.0605 14.4248C7.77924 14.7058 7.39794 14.8636 7.00037 14.8636C6.60281 14.8636 6.22151 14.7058 5.94025 14.4248L2.75725 11.2425C1.91817 10.4034 1.34675 9.3343 1.11527 8.17042C0.883782 7.00655 1.00262 5.80016 1.45675 4.70383C1.91089 3.60749 2.67992 2.67043 3.66661 2.01116C4.6533 1.35189 5.81333 1 7 1C8.18667 1 9.3467 1.35189 10.3334 2.01116C11.3201 2.67043 12.0891 3.60749 12.5432 4.70383C12.9974 5.80016 13.1162 7.00655 12.8847 8.17042C12.6532 9.3343 12.0818 10.4034 11.2427 11.2425Z" stroke="url(#paint1_linear_364_8462)" stroke-linecap="round" stroke-linejoin="round"/>
<defs>
<linearGradient id="paint0_linear_364_8462" x1="1" y1="7.93179" x2="13" y2="7.93179" gradientUnits="userSpaceOnUse">
<stop stop-color="#158ECE"/>
<stop offset="1" stop-color="#19E3E3"/>
</linearGradient>
<linearGradient id="paint1_linear_364_8462" x1="1" y1="7.93179" x2="13" y2="7.93179" gradientUnits="userSpaceOnUse">
<stop stop-color="#158ECE"/>
<stop offset="1" stop-color="#19E3E3"/>
</linearGradient>
</defs>
</svg>
