<svg width="215" height="30" viewBox="0 0 215 30" fill="none" xmlns="http://www.w3.org/2000/svg">
<rect width="215" height="30" fill="#F5F5F5"/>
<g id="Termos e condi&#195;&#167;&#195;&#181;es" clip-path="url(#clip0_271_4970)">
<rect width="1440" height="8442" transform="translate(-101 -65)" fill="white"/>
<g id="Nav_Tab_Desktop_Dark">
<g id="Group 84">
<g id="Clip path group">
<mask id="mask0_271_4970" style="mask-type:luminance" maskUnits="userSpaceOnUse" x="39" y="1" width="12" height="10">
<g id="clippath-1">
<path id="Vector" d="M39.426 2.73255V2.7328C39.4154 3.36099 39.8636 3.91419 40.485 4.00731C43.9887 4.5303 46.7964 7.15784 47.6088 10.5404C48.416 10.2583 49.2193 9.97842 50.0214 9.70786C48.8992 5.45321 45.3253 2.16803 40.8847 1.49579C40.8203 1.48598 40.7563 1.48145 40.6934 1.48145C40.0139 1.48119 39.438 2.0301 39.426 2.73255Z" fill="white"/>
</g>
</mask>
<g mask="url(#mask0_271_4970)">
<g id="Group">
<path id="Vector_2" d="M39.8468 -0.611244L37.6289 10.1731L49.5921 12.6335L51.81 1.84912L39.8468 -0.611244Z" fill="url(#paint0_linear_271_4970)"/>
</g>
</g>
</g>
<g id="Clip path group_2">
<mask id="mask1_271_4970" style="mask-type:luminance" maskUnits="userSpaceOnUse" x="45" y="7" width="6" height="12">
<g id="clippath-3">
<path id="Vector_3" d="M47.5565 7.38085H47.5562C47.0242 7.71483 46.8052 8.39235 47.0669 8.96367C48.4477 11.98 47.9486 15.493 45.916 18.0025C45.9955 17.9864 46.0801 17.9776 46.1705 17.9776C46.3864 17.9776 46.5684 18.0284 46.7216 18.1117C46.7539 17.8329 46.8737 17.5666 47.0815 17.3786C46.8719 16.7053 47.2242 15.8325 48.1384 15.8325C49.3117 15.8325 49.5586 17.2646 48.8851 17.8741C48.9047 17.9373 48.9198 18.0025 48.9296 18.0684C50.6514 15.0186 50.899 11.2436 49.389 7.9275C49.1743 7.45584 48.7104 7.18579 48.2317 7.18579C48.0014 7.18579 47.7676 7.24822 47.5565 7.38085Z" fill="white"/>
</g>
</mask>
<g mask="url(#mask1_271_4970)">
<g id="Group_2">
<path id="Vector_4" d="M48.9259 4.74929L40.5723 11.5112L47.888 20.5489L56.2416 13.787L48.9259 4.74929Z" fill="url(#paint1_linear_271_4970)"/>
</g>
</g>
</g>
<g id="Clip path group_3">
<mask id="mask2_271_4970" style="mask-type:luminance" maskUnits="userSpaceOnUse" x="38" y="15" width="12" height="9">
<g id="clippath-4">
<path id="Vector_5" d="M46.9899 16.3104C45.4418 19.4966 42.0937 21.3888 38.623 21.1507C38.6505 22.0051 38.6769 22.8555 38.6948 23.7019C43.0904 23.9053 47.2949 21.4794 49.2663 17.4437C49.6031 16.7541 49.2515 15.924 48.5229 15.6817C48.3895 15.6374 48.2526 15.616 48.1174 15.616C47.6496 15.616 47.2031 15.8719 46.9899 16.3104Z" fill="white"/>
</g>
</mask>
<g mask="url(#mask2_271_4970)">
<g id="Group_3">
<path id="Vector_6" d="M49.5265 14.6993L37.9316 15.6738L38.7005 24.8214L50.2953 23.8469L49.5265 14.6993Z" fill="url(#paint2_linear_271_4970)"/>
</g>
</g>
</g>
<g id="Clip path group_4">
<mask id="mask3_271_4970" style="mask-type:luminance" maskUnits="userSpaceOnUse" x="29" y="16" width="13" height="8">
<g id="clippath-5">
<path id="Vector_7" d="M29.5684 18.19C31.7975 21.9836 36.1256 24.1823 40.5829 23.6306C41.3445 23.5365 41.8478 22.7887 41.6533 22.046C41.494 21.4382 40.9131 21.0262 40.2897 21.1045C36.775 21.5469 33.3622 19.7746 31.6666 16.7368C30.9657 17.2263 30.2678 17.7131 29.5684 18.19Z" fill="white"/>
</g>
</mask>
<g mask="url(#mask3_271_4970)">
<g id="Group_4">
<path id="Vector_8" d="M29.5862 16.2724L29.2871 24.1714L41.8305 24.6463L42.1295 16.7472L29.5862 16.2724Z" fill="url(#paint3_linear_271_4970)"/>
</g>
</g>
</g>
<g id="Clip path group_5">
<mask id="mask4_271_4970" style="mask-type:luminance" maskUnits="userSpaceOnUse" x="28" y="7" width="5" height="13">
<g id="clippath-7">
<path id="Vector_9" d="M29.9881 18.8499C30.4225 19.4829 31.3178 19.5861 31.8878 19.0716V19.0714C32.3542 18.6506 32.4526 17.9451 32.0964 17.4276C30.3289 14.8615 30.1205 11.5776 31.4008 8.84863C31.3449 8.82874 31.2938 8.80307 31.2448 8.77538C31.1391 9.24074 30.7787 9.6384 30.1618 9.6384C29.1523 9.6384 28.8289 8.57781 29.1873 7.8935C29.1568 7.84971 29.1281 7.80466 29.1042 7.75684C27.4462 11.2836 27.7112 15.529 29.9881 18.8499Z" fill="white"/>
</g>
</mask>
<g mask="url(#mask4_271_4970)">
<g id="Group_5">
<path id="Vector_10" d="M28.2897 5.88355L23.0215 17.595L31.611 21.4589L36.8793 9.74745L28.2897 5.88355Z" fill="url(#paint4_linear_271_4970)"/>
</g>
</g>
</g>
<g id="Clip path group_6">
<mask id="mask5_271_4970" style="mask-type:luminance" maskUnits="userSpaceOnUse" x="28" y="0" width="13" height="11">
<g id="clippath-8">
<path id="Vector_11" d="M39.2481 0.177734C38.5681 0.177734 38.0121 0.731171 38.0056 1.40971C34.0187 1.84965 30.464 4.42433 28.8837 8.24508C28.59 8.95432 28.9924 9.7607 29.7349 9.95752C30.3422 10.1183 30.987 9.81582 31.2258 9.23495C32.4072 6.36252 35.0312 4.39766 38.0043 3.97156V7.89802C38.0043 8.58209 38.5641 9.14183 39.2481 9.14183H39.3038C39.9878 9.14183 40.5476 8.58209 40.5476 7.89802V1.42154C40.5476 0.737473 39.9878 0.177737 39.3038 0.177737L39.2481 0.177734Z" fill="white"/>
</g>
</mask>
<g mask="url(#mask5_271_4970)">
<g id="Group_6">
<path id="Vector_12" d="M31.2622 -4.80416L24.4473 7.896L37.8731 15.1003L44.688 2.40016L31.2622 -4.80416Z" fill="url(#paint5_linear_271_4970)"/>
</g>
</g>
</g>
<path id="Vector_13" d="M6.6665 23.7148C2.98468 23.7148 0 20.7302 0 17.0483V7.04833C0 3.3665 2.98468 0.381836 6.6665 0.381836H21.0933C21.8292 0.381836 22.478 0.864813 22.6895 1.56976L22.6897 1.57077C23.0104 2.63991 22.2098 3.71584 21.0936 3.71584H6.6665C4.82597 3.71584 3.33401 5.2078 3.33401 7.04833V17.0483C3.33401 18.8894 4.82647 20.3818 6.66751 20.3818H18.3334C19.2538 20.3818 20 19.6356 20 18.7152V12.0485C20 11.1281 20.746 10.3818 21.6664 10.3818C22.5868 10.3818 23.333 11.1281 23.333 12.0485V22.0485C23.333 22.9686 22.5868 23.7148 21.6664 23.7148H6.6665Z" fill="#111111"/>
<path id="Vector_14" d="M70.6724 23.333C66.9905 23.333 64.0059 20.3483 64.0059 16.6665V6.6665C64.0059 2.98467 66.9905 0 70.6724 0H85.0984C85.8343 0 86.4832 0.482714 86.6946 1.18742L86.6948 1.18843C87.016 2.25782 86.2151 3.334 85.0987 3.334H70.6714C68.8308 3.334 67.3389 4.82596 67.3389 6.6665V16.6665C67.3389 18.5075 68.8313 20 70.6724 20H85.0987C86.2151 20 87.0157 21.0764 86.6948 22.1456C86.4832 22.8505 85.8343 23.333 85.0987 23.333H70.6724Z" fill="#111111"/>
<path id="Vector_15" d="M91.3405 0C92.2608 0 93.0071 0.746239 93.0071 1.66663V5.00038C93.0071 5.92077 93.7531 6.667 94.6734 6.667H106.34C110.022 6.667 113.007 9.65168 113.007 13.3335V21.6664C113.007 22.5868 112.261 23.333 111.34 23.333H111.339C110.419 23.333 109.673 22.5868 109.673 21.6664V13.3335C109.673 11.4925 108.181 10 106.34 10H94.6734C93.7531 10 93.0071 10.746 93.0071 11.6664V21.6664C93.0071 22.5868 92.2608 23.333 91.3405 23.333C90.4201 23.333 89.6738 22.5868 89.6738 21.6664V1.66663C89.6738 0.746239 90.4201 0 91.3405 0Z" fill="#111111"/>
<path id="Vector_16" d="M116.82 8.40282C117.129 7.37269 118.077 6.66724 119.153 6.66724H134.2C136.855 6.66724 139.007 8.81935 139.007 11.4741V22.0925C139.007 22.7778 138.451 23.3332 137.766 23.3332H120.686C118.546 23.3332 116.571 22.0031 115.929 19.962C114.841 16.5001 117.38 13.3332 120.674 13.3332H134.433C135.118 13.3332 135.674 12.7778 135.674 12.0925V11.4741C135.674 10.6601 135.014 10.0002 134.2 10.0002H118.008C117.177 10.0002 116.581 9.19888 116.82 8.40282ZM135.674 18.7595V17.907C135.674 17.2217 135.118 16.6662 134.433 16.6662H120.596C120.066 16.6662 119.403 17.0387 119.187 17.5232C118.616 18.8045 119.482 20.0002 120.674 20.0002H134.433C135.118 20.0002 135.674 19.4448 135.674 18.7595Z" fill="#111111"/>
<path id="Vector_17" d="M162.366 7.85442C162.687 8.9238 161.886 9.99998 160.77 9.99998H150.676C147.927 9.99998 145.677 12.2498 145.677 14.9996V21.6666C145.677 22.587 144.931 23.333 144.01 23.333C143.09 23.333 142.344 22.587 142.344 21.6666V8.33361C142.344 7.41322 143.09 6.66699 144.01 6.66699C144.931 6.66699 145.677 7.41322 145.677 8.33361V9.73396C145.81 8.03336 147.243 6.66699 149.01 6.66699H160.77C161.506 6.66699 162.154 7.14971 162.366 7.85442Z" fill="#111111"/>
<path id="Vector_18" d="M188.345 7.50005V24.1671C188.345 27.3886 185.733 30 182.512 30H167.299C166.931 30 166.606 29.7586 166.501 29.4063L166.001 27.7384C165.841 27.2038 166.241 26.666 166.799 26.666H182.512C183.893 26.666 185.012 25.5468 185.012 24.166C185.012 23.706 184.639 23.333 184.179 23.333H170.845C167.623 23.333 165.012 20.7216 165.012 17.5001V12.5002C165.012 9.27867 167.623 6.66699 170.845 6.66699H187.512C187.972 6.66699 188.345 7.03998 188.345 7.50005ZM168.346 17.5001C168.346 18.8808 169.465 20 170.846 20H184.179C184.639 20 185.012 19.627 185.012 19.1669V10.8331C185.012 10.373 184.639 9.99999 184.179 9.99999H170.846C169.465 9.99999 168.346 11.1195 168.346 12.5002V17.5001Z" fill="#111111"/>
<path id="Vector_19" d="M209.264 6.66699C212.255 6.66699 214.681 9.09193 214.681 12.0834C214.681 14.6143 212.629 16.666 210.098 16.666H195.93C195.24 16.666 194.681 17.2255 194.681 17.9156V17.9166C194.681 19.0673 195.613 20 196.764 20H211.279C212.642 20 213.619 21.3135 213.228 22.619L213.103 23.036C213.05 23.2122 212.888 23.333 212.704 23.333H196.764C193.773 23.333 191.348 20.9078 191.348 17.9166V12.0834C191.348 9.09194 193.773 6.667 196.764 6.667L209.264 6.66699ZM196.764 9.99999C195.613 9.99999 194.681 10.9327 194.681 12.0834C194.681 12.7735 195.24 13.333 195.93 13.333H210.097C210.787 13.333 211.347 12.7735 211.347 12.0834C211.347 10.9327 210.414 9.99999 209.263 9.99999H196.764Z" fill="#111111"/>
<path id="Vector_20" d="M57.4446 18.4653H57.4449C58.8498 18.4653 59.9889 19.6044 59.9889 21.0096C59.9889 22.4144 58.8498 23.5535 57.4449 23.5535H57.4446C56.0395 23.5535 54.9004 22.4144 54.9004 21.0096C54.9004 19.6044 56.0395 18.4653 57.4446 18.4653Z" fill="#111111"/>
</g>
</g>
</g>
<defs>
<linearGradient id="paint0_linear_271_4970" x1="46.2572" y1="6.32658" x2="41.7813" y2="5.40606" gradientUnits="userSpaceOnUse">
<stop stop-color="#333333"/>
<stop offset="1" stop-color="#188DCD"/>
</linearGradient>
<linearGradient id="paint1_linear_271_4970" x1="45.1491" y1="8.62434" x2="49.9448" y2="14.5488" gradientUnits="userSpaceOnUse">
<stop stop-color="#188DCD"/>
<stop offset="0.17703" stop-color="#1B80B7"/>
<stop offset="0.54486" stop-color="#255F7F"/>
<stop offset="1" stop-color="#333333"/>
</linearGradient>
<linearGradient id="paint2_linear_271_4970" x1="44.3176" y1="22.1789" x2="43.9349" y2="17.6254" gradientUnits="userSpaceOnUse">
<stop stop-color="#333333"/>
<stop offset="1" stop-color="#188DCD"/>
</linearGradient>
<linearGradient id="paint3_linear_271_4970" x1="33.6214" y1="20.3809" x2="41.9395" y2="20.6958" gradientUnits="userSpaceOnUse">
<stop stop-color="#333333"/>
<stop offset="1" stop-color="#188DCD"/>
</linearGradient>
<linearGradient id="paint4_linear_271_4970" x1="32.0519" y1="14.617" x2="28.1556" y2="12.8642" gradientUnits="userSpaceOnUse">
<stop stop-color="#188DCD"/>
<stop offset="0.17703" stop-color="#1B80B7"/>
<stop offset="0.54486" stop-color="#255F7F"/>
<stop offset="1" stop-color="#333333"/>
</linearGradient>
<linearGradient id="paint5_linear_271_4970" x1="36.2026" y1="2.09765" x2="32.0471" y2="9.84172" gradientUnits="userSpaceOnUse">
<stop stop-color="#333333"/>
<stop offset="1" stop-color="#188DCD"/>
</linearGradient>
<clipPath id="clip0_271_4970">
<rect width="1440" height="8442" fill="white" transform="translate(-101 -65)"/>
</clipPath>
</defs>
</svg>
