<svg width="14" height="12" viewBox="0 0 14 12" fill="none" xmlns="http://www.w3.org/2000/svg">
<path d="M1 2.66666C1 2.31304 1.14048 1.9739 1.39052 1.72385C1.64057 1.4738 1.97971 1.33333 2.33333 1.33333H11.6667C12.0203 1.33333 12.3594 1.4738 12.6095 1.72385C12.8595 1.9739 13 2.31304 13 2.66666M1 2.66666V9.33333C1 9.68695 1.14048 10.0261 1.39052 10.2761C1.64057 10.5262 1.97971 10.6667 2.33333 10.6667H11.6667C12.0203 10.6667 12.3594 10.5262 12.6095 10.2761C12.8595 10.0261 13 9.68695 13 9.33333V2.66666M1 2.66666L7 6.66666L13 2.66666" stroke="url(#paint0_linear_364_8456)" stroke-linecap="round" stroke-linejoin="round"/>
<defs>
<linearGradient id="paint0_linear_364_8456" x1="1" y1="5.99999" x2="13" y2="5.99999" gradientUnits="userSpaceOnUse">
<stop stop-color="#158ECE"/>
<stop offset="1" stop-color="#19E3E3"/>
</linearGradient>
</defs>
</svg>
