<svg width="16" height="16" viewBox="0 0 16 16" fill="none" xmlns="http://www.w3.org/2000/svg">
<path d="M7.83176 7.4538C7.51543 7.4538 7.25912 7.19749 7.25912 6.88117V1.16528C7.25912 0.848956 7.51543 0.592651 7.83176 0.592651C8.14808 0.592651 8.40439 0.848956 8.40439 1.16528V6.88117C8.40439 7.19749 8.14808 7.4538 7.83176 7.4538Z" fill="white"/>
<path d="M7.83182 15.4074C3.84018 15.4074 0.592651 12.1598 0.592651 8.16818C0.592651 5.77736 1.77296 3.54276 3.74996 2.19077C4.01092 2.01276 4.36751 2.07949 4.5459 2.34027C4.72429 2.60123 4.65756 2.95764 4.39641 3.13621C2.73182 4.27458 1.73792 6.15576 1.73792 8.16818C1.73792 11.5283 4.47171 14.2621 7.83183 14.2621C11.1921 14.2621 13.9259 11.5283 13.9259 8.16818C13.9259 6.15576 12.932 4.27458 11.2674 3.13621C11.0063 2.95763 10.9396 2.60123 11.1179 2.34027C11.2965 2.0793 11.6527 2.01257 11.9139 2.19077C13.8909 3.54276 15.0712 5.77736 15.0712 8.16818C15.0712 12.1598 11.8237 15.4074 7.83182 15.4074Z" fill="white"/>
</svg>
