<svg width="10" height="10" viewBox="0 0 10 10" fill="none" xmlns="http://www.w3.org/2000/svg">
<path d="M5.5 0.636353C5.5 0.36021 5.27614 0.136353 5 0.136353C4.72386 0.136353 4.5 0.36021 4.5 0.636352L5.5 0.636353ZM4.64645 9.21806C4.84171 9.41332 5.15829 9.41332 5.35355 9.21806L8.53553 6.03608C8.7308 5.84081 8.7308 5.52423 8.53553 5.32897C8.34027 5.13371 8.02369 5.13371 7.82843 5.32897L5 8.1574L2.17157 5.32897C1.97631 5.13371 1.65973 5.13371 1.46447 5.32897C1.2692 5.52423 1.2692 5.84081 1.46447 6.03607L4.64645 9.21806ZM4.5 0.636352L4.5 8.8645L5.5 8.8645L5.5 0.636353L4.5 0.636352Z" fill="url(#paint0_linear_317_11736)"/>
<defs>
<linearGradient id="paint0_linear_317_11736" x1="4.5" y1="0.636352" x2="4.5" y2="8.8645" gradientUnits="userSpaceOnUse">
<stop stop-color="#158ECE"/>
<stop offset="1" stop-color="#19E3E3"/>
</linearGradient>
</defs>
</svg>
