<svg width="11" height="11" viewBox="0 0 11 11" fill="none" xmlns="http://www.w3.org/2000/svg">
<path id="Vector" d="M3.55556 4.66667C3.55556 4.66667 4.78137 4.37936 5.5 4.11111C6.37425 3.78478 7.44444 3 7.44444 3M3.55556 6.33333C3.55556 6.33333 4.78137 6.62064 5.5 6.88889C6.37425 7.21522 7.44444 8 7.44444 8M3.83333 5.5C3.83333 4.57953 3.08714 3.83333 2.16667 3.83333C1.24619 3.83333 0.5 4.57953 0.5 5.5C0.5 6.42047 1.24619 7.16667 2.16667 7.16667C3.08714 7.16667 3.83333 6.42047 3.83333 5.5ZM10.5 2.16667C10.5 1.24619 9.75381 0.5 8.83333 0.5C7.91286 0.5 7.16667 1.24619 7.16667 2.16667C7.16667 3.08714 7.91286 3.83333 8.83333 3.83333C9.75381 3.83333 10.5 3.08714 10.5 2.16667ZM10.5 8.83333C10.5 7.91286 9.75381 7.16667 8.83333 7.16667C7.91286 7.16667 7.16667 7.91286 7.16667 8.83333C7.16667 9.75381 7.91286 10.5 8.83333 10.5C9.75381 10.5 10.5 9.75381 10.5 8.83333Z" stroke="#158ECE" stroke-linejoin="round"/>
</svg>
