<svg width="12" height="12" viewBox="0 0 12 12" fill="none" xmlns="http://www.w3.org/2000/svg">
<g id="Group 86">
<path id="Arrow 24" d="M1.53033 0.46967C1.23744 0.176777 0.762563 0.176777 0.46967 0.46967C0.176777 0.762563 0.176777 1.23744 0.46967 1.53033L1.53033 0.46967ZM11 11.75C11.4142 11.75 11.75 11.4142 11.75 11L11.75 4.25C11.75 3.83579 11.4142 3.5 11 3.5C10.5858 3.5 10.25 3.83579 10.25 4.25L10.25 10.25L4.25 10.25C3.83578 10.25 3.5 10.5858 3.5 11C3.5 11.4142 3.83578 11.75 4.25 11.75L11 11.75ZM0.46967 1.53033L10.4697 11.5303L11.5303 10.4697L1.53033 0.46967L0.46967 1.53033Z" fill="url(#paint0_linear_1014_16428)"/>
</g>
<defs>
<linearGradient id="paint0_linear_1014_16428" x1="0.646447" y1="1.35355" x2="10.6464" y2="11.3536" gradientUnits="userSpaceOnUse">
<stop stop-color="#158ECE"/>
<stop offset="1" stop-color="#19E3E3"/>
</linearGradient>
</defs>
</svg>
