<svg width="216" height="30" viewBox="0 0 216 30" fill="none" xmlns="http://www.w3.org/2000/svg">
<mask id="mask0_545_7773" style="mask-type:luminance" maskUnits="userSpaceOnUse" x="39" y="1" width="12" height="10">
<path d="M39.9258 2.73255V2.7328C39.9153 3.36099 40.3635 3.91419 40.9849 4.00731C44.4885 4.5303 47.2963 7.15784 48.1087 10.5404C48.9159 10.2583 49.7192 9.97842 50.5213 9.70786C49.3991 5.45321 45.8252 2.16803 41.3846 1.49579C41.3202 1.48598 41.2562 1.48145 41.1933 1.48145C40.5138 1.48119 39.9379 2.0301 39.9258 2.73255Z" fill="white"/>
</mask>
<g mask="url(#mask0_545_7773)">
<path d="M40.3463 -0.611244L38.1284 10.1731L50.0916 12.6335L52.3095 1.84912L40.3463 -0.611244Z" fill="url(#paint0_linear_545_7773)"/>
</g>
<mask id="mask1_545_7773" style="mask-type:luminance" maskUnits="userSpaceOnUse" x="46" y="7" width="5" height="12">
<path d="M48.0567 7.38085H48.0565C47.5244 7.71483 47.3054 8.39235 47.5672 8.96367C48.9479 11.98 48.4488 15.493 46.4163 18.0025C46.4958 17.9864 46.5804 17.9776 46.6707 17.9776C46.8867 17.9776 47.0686 18.0284 47.2219 18.1117C47.2541 17.8329 47.3739 17.5666 47.5818 17.3786C47.3721 16.7053 47.7245 15.8325 48.6386 15.8325C49.8119 15.8325 50.0588 17.2646 49.3853 17.8741C49.405 17.9373 49.4201 18.0025 49.4299 18.0684C51.1516 15.0186 51.3993 11.2436 49.8892 7.9275C49.6745 7.45584 49.2107 7.18579 48.732 7.18579C48.5017 7.18579 48.2679 7.24822 48.0567 7.38085Z" fill="white"/>
</mask>
<g mask="url(#mask1_545_7773)">
<path d="M49.4254 4.74929L41.0718 11.5112L48.3875 20.5489L56.7411 13.787L49.4254 4.74929Z" fill="url(#paint1_linear_545_7773)"/>
</g>
<mask id="mask2_545_7773" style="mask-type:luminance" maskUnits="userSpaceOnUse" x="39" y="15" width="11" height="9">
<path d="M47.4903 16.3104C45.9422 19.4966 42.5941 21.3888 39.1234 21.1507C39.1508 22.0051 39.1773 22.8555 39.1951 23.7019C43.5907 23.9053 47.7953 21.4794 49.7667 17.4437C50.1035 16.7541 49.7519 15.924 49.0232 15.6817C48.8899 15.6374 48.7529 15.616 48.6178 15.616C48.1499 15.616 47.7034 15.8719 47.4903 16.3104Z" fill="white"/>
</mask>
<g mask="url(#mask2_545_7773)">
<path d="M50.0261 14.6993L38.4313 15.6738L39.2001 24.8214L50.795 23.8469L50.0261 14.6993Z" fill="url(#paint2_linear_545_7773)"/>
</g>
<mask id="mask3_545_7773" style="mask-type:luminance" maskUnits="userSpaceOnUse" x="30" y="16" width="13" height="8">
<path d="M30.0688 18.19C32.298 21.9836 36.6261 24.1823 41.0834 23.6306C41.845 23.5365 42.3483 22.7887 42.1538 22.046C41.9945 21.4382 41.4136 21.0262 40.7902 21.1045C37.2755 21.5469 33.8627 19.7746 32.1671 16.7368C31.4662 17.2263 30.7683 17.7131 30.0688 18.19Z" fill="white"/>
</mask>
<g mask="url(#mask3_545_7773)">
<path d="M30.0867 16.2724L29.7877 24.1714L42.331 24.6463L42.6301 16.7472L30.0867 16.2724Z" fill="url(#paint3_linear_545_7773)"/>
</g>
<mask id="mask4_545_7773" style="mask-type:luminance" maskUnits="userSpaceOnUse" x="28" y="7" width="5" height="13">
<path d="M30.4873 18.8499C30.9217 19.4829 31.8169 19.5861 32.387 19.0716V19.0714C32.8533 18.6506 32.9517 17.9451 32.5956 17.4276C30.8281 14.8615 30.6197 11.5776 31.9 8.84863C31.8441 8.82874 31.793 8.80307 31.7439 8.77538C31.6382 9.24074 31.2778 9.6384 30.6609 9.6384C29.6514 9.6384 29.328 8.57781 29.6864 7.8935C29.656 7.84971 29.6273 7.80466 29.6034 7.75684C27.9453 11.2836 28.2103 15.529 30.4873 18.8499Z" fill="white"/>
</mask>
<g mask="url(#mask4_545_7773)">
<path d="M28.7886 5.88355L23.5204 17.595L32.1099 21.4589L37.3782 9.74745L28.7886 5.88355Z" fill="url(#paint4_linear_545_7773)"/>
</g>
<mask id="mask5_545_7773" style="mask-type:luminance" maskUnits="userSpaceOnUse" x="29" y="0" width="13" height="11">
<path d="M39.7486 0.177734C39.0685 0.177734 38.5126 0.731171 38.506 1.40971C34.5191 1.84965 30.9644 4.42433 29.3841 8.24508C29.0904 8.95432 29.4928 9.7607 30.2353 9.95752C30.8426 10.1183 31.4874 9.81582 31.7263 9.23495C32.9076 6.36252 35.5317 4.39766 38.5048 3.97156V7.89802C38.5048 8.58209 39.0645 9.14183 39.7486 9.14183H39.8042C40.4882 9.14183 41.048 8.58209 41.048 7.89802V1.42154C41.048 0.737473 40.4882 0.177737 39.8042 0.177737L39.7486 0.177734Z" fill="white"/>
</mask>
<g mask="url(#mask5_545_7773)">
<path d="M31.7632 -4.80416L24.9483 7.896L38.3742 15.1003L45.1891 2.40016L31.7632 -4.80416Z" fill="url(#paint5_linear_545_7773)"/>
</g>
<path d="M7.1665 23.7148C3.48468 23.7148 0.5 20.7302 0.5 17.0483V7.04833C0.5 3.3665 3.48468 0.381836 7.1665 0.381836H21.5933C22.3292 0.381836 22.978 0.864813 23.1895 1.56976L23.1897 1.57077C23.5104 2.63991 22.7098 3.71584 21.5936 3.71584H7.1665C5.32597 3.71584 3.83401 5.2078 3.83401 7.04833V17.0483C3.83401 18.8894 5.32647 20.3818 7.16751 20.3818H18.8334C19.7538 20.3818 20.5 19.6356 20.5 18.7152V12.0485C20.5 11.1281 21.246 10.3818 22.1664 10.3818C23.0868 10.3818 23.833 11.1281 23.833 12.0485V22.0485C23.833 22.9686 23.0868 23.7148 22.1664 23.7148H7.1665Z" fill="white"/>
<path d="M71.1718 23.333C67.4899 23.333 64.5052 20.3483 64.5052 16.6665V6.6665C64.5052 2.98467 67.4899 0 71.1718 0H85.5978C86.3337 0 86.9825 0.482714 87.194 1.18742L87.1942 1.18843C87.5153 2.25782 86.7145 3.334 85.5981 3.334H71.1707C69.3302 3.334 67.8383 4.82596 67.8383 6.6665V16.6665C67.8383 18.5075 69.3307 20 71.1718 20H85.5981C86.7145 20 87.5151 21.0764 87.1942 22.1456C86.9825 22.8505 86.3337 23.333 85.5981 23.333H71.1718Z" fill="white"/>
<path d="M91.8402 0C92.7605 0 93.5068 0.746239 93.5068 1.66663V5.00038C93.5068 5.92077 94.2528 6.667 95.1731 6.667H106.84C110.522 6.667 113.507 9.65168 113.507 13.3335V21.6664C113.507 22.5868 112.761 23.333 111.84 23.333H111.839C110.919 23.333 110.173 22.5868 110.173 21.6664V13.3335C110.173 11.4925 108.68 10 106.839 10H95.1731C94.2528 10 93.5068 10.746 93.5068 11.6664V21.6664C93.5068 22.5868 92.7605 23.333 91.8402 23.333C90.9198 23.333 90.1735 22.5868 90.1735 21.6664V1.66663C90.1735 0.746239 90.9198 0 91.8402 0Z" fill="white"/>
<path d="M117.32 8.40282C117.629 7.37269 118.578 6.66724 119.653 6.66724H134.7C137.355 6.66724 139.507 8.81935 139.507 11.4741V22.0925C139.507 22.7778 138.952 23.3332 138.266 23.3332H121.186C119.047 23.3332 117.072 22.0031 116.43 19.962C115.342 16.5001 117.881 13.3332 121.174 13.3332H134.933C135.619 13.3332 136.174 12.7778 136.174 12.0925V11.4741C136.174 10.6601 135.514 10.0002 134.7 10.0002H118.509C117.677 10.0002 117.081 9.19888 117.32 8.40282ZM136.174 18.7595V17.907C136.174 17.2217 135.619 16.6662 134.933 16.6662H121.097C120.566 16.6662 119.903 17.0387 119.687 17.5232C119.117 18.8045 119.982 20.0002 121.174 20.0002H134.933C135.619 20.0002 136.174 19.4448 136.174 18.7595Z" fill="white"/>
<path d="M162.866 7.85442C163.187 8.9238 162.386 9.99998 161.27 9.99998H151.176C148.427 9.99998 146.177 12.2498 146.177 14.9996V21.6666C146.177 22.587 145.431 23.333 144.51 23.333C143.59 23.333 142.844 22.587 142.844 21.6666V8.33361C142.844 7.41322 143.59 6.66699 144.51 6.66699C145.431 6.66699 146.177 7.41322 146.177 8.33361V9.73396C146.31 8.03336 147.743 6.66699 149.51 6.66699H161.27C162.006 6.66699 162.654 7.14971 162.866 7.85442Z" fill="white"/>
<path d="M188.844 7.50005V24.1671C188.844 27.3886 186.232 30 183.011 30H167.798C167.43 30 167.105 29.7586 167 29.4063L166.5 27.7384C166.34 27.2038 166.74 26.666 167.298 26.666H183.011C184.392 26.666 185.511 25.5468 185.511 24.166C185.511 23.706 185.138 23.333 184.678 23.333H171.344C168.122 23.333 165.511 20.7216 165.511 17.5001V12.5002C165.511 9.27867 168.122 6.66699 171.344 6.66699H188.011C188.471 6.66699 188.844 7.03998 188.844 7.50005ZM168.845 17.5001C168.845 18.8808 169.964 20 171.345 20H184.678C185.138 20 185.511 19.627 185.511 19.1669V10.8331C185.511 10.373 185.138 9.99999 184.678 9.99999H171.345C169.964 9.99999 168.845 11.1195 168.845 12.5002V17.5001Z" fill="white"/>
<path d="M209.763 6.66699C212.755 6.66699 215.18 9.09193 215.18 12.0834C215.18 14.6143 213.128 16.666 210.597 16.666H196.429C195.739 16.666 195.18 17.2255 195.18 17.9156V17.9166C195.18 19.0673 196.113 20 197.263 20H211.778C213.141 20 214.118 21.3135 213.727 22.619L213.602 23.036C213.549 23.2122 213.387 23.333 213.203 23.333H197.263C194.272 23.333 191.847 20.9078 191.847 17.9166V12.0834C191.847 9.09194 194.272 6.667 197.263 6.667L209.763 6.66699ZM197.263 9.99999C196.113 9.99999 195.18 10.9327 195.18 12.0834C195.18 12.7735 195.739 13.333 196.429 13.333H210.596C211.287 13.333 211.846 12.7735 211.846 12.0834C211.846 10.9327 210.913 9.99999 209.762 9.99999H197.263Z" fill="white"/>
<path d="M57.9447 18.4653H57.945C59.3499 18.4653 60.489 19.6044 60.489 21.0096C60.489 22.4144 59.3499 23.5535 57.945 23.5535H57.9447C56.5396 23.5535 55.4005 22.4144 55.4005 21.0096C55.4005 19.6044 56.5396 18.4653 57.9447 18.4653Z" fill="white"/>
<defs>
<linearGradient id="paint0_linear_545_7773" x1="46.7567" y1="6.32658" x2="42.2808" y2="5.40606" gradientUnits="userSpaceOnUse">
<stop stop-color="#333333"/>
<stop offset="1" stop-color="#188DCD"/>
</linearGradient>
<linearGradient id="paint1_linear_545_7773" x1="45.6487" y1="8.62434" x2="50.4443" y2="14.5488" gradientUnits="userSpaceOnUse">
<stop stop-color="#188DCD"/>
<stop offset="0.17703" stop-color="#1B80B7"/>
<stop offset="0.54486" stop-color="#255F7F"/>
<stop offset="1" stop-color="#333333"/>
</linearGradient>
<linearGradient id="paint2_linear_545_7773" x1="44.8173" y1="22.1789" x2="44.4345" y2="17.6254" gradientUnits="userSpaceOnUse">
<stop stop-color="#333333"/>
<stop offset="1" stop-color="#188DCD"/>
</linearGradient>
<linearGradient id="paint3_linear_545_7773" x1="34.122" y1="20.3809" x2="42.4401" y2="20.6958" gradientUnits="userSpaceOnUse">
<stop stop-color="#333333"/>
<stop offset="1" stop-color="#188DCD"/>
</linearGradient>
<linearGradient id="paint4_linear_545_7773" x1="32.5508" y1="14.617" x2="28.6545" y2="12.8642" gradientUnits="userSpaceOnUse">
<stop stop-color="#188DCD"/>
<stop offset="0.17703" stop-color="#1B80B7"/>
<stop offset="0.54486" stop-color="#255F7F"/>
<stop offset="1" stop-color="#333333"/>
</linearGradient>
<linearGradient id="paint5_linear_545_7773" x1="36.7037" y1="2.09765" x2="32.5482" y2="9.84172" gradientUnits="userSpaceOnUse">
<stop stop-color="#333333"/>
<stop offset="1" stop-color="#188DCD"/>
</linearGradient>
</defs>
</svg>
